<?xml version="1.0"?>
<svg width="1024" height="1024" xmlns="http://www.w3.org/2000/svg" xmlns:svg="http://www.w3.org/2000/svg">
 <g class="layer">
  <title>Layer 1</title>
  <g fill="None" fill-opacity="0" id="svg_3" stroke="#222120" stroke-opacity="1" stroke-width="0.3">
   <path d="m624,313c12.53,-5.77 22.07,-12.93 33.92,-21.08c11.85,-8.15 25.67,1.85 40.01,4.15c14.33,2.31 34.84,2.57 49.06,-1.08c14.23,-3.65 28.68,-7.75 41.78,-13.22c13.1,-5.47 23.39,-11.78 35.15,-18.85c11.77,-7.06 20.66,-13.54 30.83,-23.17c10.17,-9.62 17.43,-18.79 23.94,-31.06c6.52,-12.26 7.04,-31.71 1.08,-44.46c-5.96,-12.75 -12.03,-22.04 -21.52,-32.48c-9.49,-10.43 -18.13,-16.72 -30,-24c-11.87,-7.27 -24.23,-12.75 -38.18,-16.82c-13.95,-4.08 -29.91,-7.35 -45.07,-8.93c-15.15,-1.58 -34.54,-0.2 -48.99,3.01c-14.46,3.2 -29.03,7.1 -41.93,13.07c-12.91,5.96 -23.13,11.68 -34.33,19.67c-11.2,7.99 -18.7,15.85 -26.98,27.02c-8.28,11.17 -13.62,25.96 -14.77,40.23c-1.15,14.27 1.94,33.51 8.25,45.75c6.3,12.25 14.87,20.32 25.5,28.5c10.63,8.18 22.39,15.38 35.25,18.75c-4.05,13.36 -15.3,23.63 -23,35m-43,-114c-0.37,-3.77 -0.36,-8.29 0,-12c0,-17.75 7.68,-35.25 19.75,-48.25c12.07,-13 23.15,-21.82 38.48,-30.52c15.33,-8.7 32.13,-14.64 49.79,-19.21c17.67,-4.56 44.21,-6.62 62.98,-4.02c18.77,2.6 37.47,7.86 54.23,14.77c16.76,6.91 29.58,13.88 43,26c13.42,12.12 21.02,24.4 28.55,40.45c7.53,16.06 2.9,38.87 -8.03,52.53c-10.94,13.65 -20.82,24.02 -34.98,34.02c-14.16,10 -27.53,18.01 -43.85,25.15c-16.31,7.15 -34.49,13.95 -52.92,16.08c-18.44,2.13 -42.32,3.86 -59.68,-5.32c-17.35,-9.18 -28.64,8.19 -44.32,15.32c6.35,-8.4 13.55,-16.72 16,-27c-33.57,-11.14 -69.09,-39.25 -69,-78z" id="svg_4"/>
  </g>
  <g fill="None" fill-opacity="0" id="svg_5" stroke="#FBFBFB" stroke-opacity="1" stroke-width="0.3">
   <path d="m581,187c0,4 0,8 0,12c-0.09,38.75 35.43,66.86 69,78c-2.45,10.28 -9.65,18.6 -16,27c15.68,-7.13 26.97,-24.5 44.32,-15.32c17.36,9.18 41.24,7.45 59.68,5.32c18.43,-2.13 36.61,-8.93 52.92,-16.08c16.32,-7.14 29.69,-15.15 43.85,-25.15c14.16,-10 24.04,-20.37 34.98,-34.02c10.93,-13.66 15.56,-36.47 8.03,-52.53c-7.53,-16.05 -15.13,-28.33 -28.55,-40.45c-13.42,-12.12 -26.24,-19.09 -43,-26c-16.76,-6.91 -35.46,-12.17 -54.23,-14.77c-18.77,-2.6 -45.31,-0.54 -62.98,4.02c-17.66,4.57 -34.46,10.51 -49.79,19.21c-15.33,8.7 -26.41,17.52 -38.48,30.52c-12.07,13 -19.75,30.5 -19.75,48.25m68,-56c-1.72,3.61 -14.4,8.56 -7.75,14.75c6.66,6.19 11.53,-3.01 16.75,-5.75c0.27,6.4 -11.54,13.84 -18.23,8.23c-6.69,-5.62 0.78,-17.8 9.23,-17.23m15,5c-4.92,2.59 -12.81,5.46 -18,4c4.47,-3.52 12.39,-5.31 18,-4m10,8c-1.27,-1.27 12.71,-2.74 18,-2c5.29,0.74 15.61,-0.38 22,0c6.39,0.38 15.15,-0.27 22,0c6.85,0.27 15.02,-0.35 22,0c6.98,0.35 15.11,-0.67 22,0c6.89,0.67 15.51,-1.42 22,0c6.49,1.42 16.47,-3.13 22,0c2.23,1.26 -6.95,4.27 -12,3c-5.05,-1.27 -9.88,0.48 -17,0c-7.12,-0.48 -8.35,0.11 -18,0c-9.65,-0.11 -24.32,0.09 -34,0c-9.68,-0.09 -10.46,0.19 -18,0c-7.54,-0.19 -10.76,0.45 -17,0c-6.24,-0.45 -11.67,1.01 -17,0c-5.33,-1.01 -13.43,2.56 -17,-1m115,24c-6.25,5.9 -18.29,2.3 -28,3c-9.71,0.7 -20.93,-0.32 -31,0c-10.07,0.32 -20.74,-0.15 -31,0c-10.26,0.15 -20.59,-0.07 -31,0c-10.41,0.07 -21.53,-0.06 -32,0c3.68,-5.82 15.01,-2.33 23,-3c7.99,-0.67 17.64,0.3 26,0c8.36,-0.3 17.47,0.14 26,0c8.53,-0.14 17.4,0.06 26,0c8.6,-0.06 17.37,0.03 26,0c8.63,-0.03 17.36,0.03 26,0m17,25c1.7,1.7 -8.26,2.49 -13,2c-4.74,-0.48 -12,0.23 -18,0c-6,-0.23 -9.4,0.08 -17,0c-7.6,-0.08 -7.97,0.01 -18,0c-10.03,-0.01 -24.98,0.01 -35,0c-10.02,-0.01 -10.51,-0.02 -18,0c-7.49,0.02 -11.29,-0.06 -17,0c-5.71,0.06 -13.89,-0.14 -18,0c-4.11,0.14 -16.84,0.57 -16,-2c1.03,-3.16 12.13,-0.23 16,-1c3.87,-0.77 12.13,0.34 17,0c4.87,-0.34 11.66,0.15 17,0c5.34,-0.15 11.4,0.05 17,0c5.6,-0.05 12.33,0 18,0c5.67,0 11.39,-0.07 17,0c5.61,0.07 11.47,-0.18 17,0c5.53,0.18 11.65,-0.42 17,0c5.35,0.42 12.05,-0.93 17,0c4.95,0.93 13.61,-2.39 17,1m20,29c0.3,0.22 1.1,0.82 1,1c-2.28,4.08 -14.79,-0.17 -20,1c-5.21,1.17 -14.68,-0.51 -21,0c-6.32,0.51 -15.25,-0.24 -22,0c-6.75,0.24 -14.07,-0.11 -21,0c-6.93,0.11 -13.94,-0.05 -21,0c-7.06,0.05 -14.9,-0.02 -22,0c-7.1,0.02 -13.9,-0.01 -21,0c-7.1,0.01 -13.84,-0.01 -21,0c-7.16,0.01 -14.8,0 -22,0c6.61,-5.9 18.91,-2.31 29,-3c10.09,-0.69 21.51,0.28 32,0c10.49,-0.28 22.38,0.09 33,0c10.62,-0.09 21.38,-0.06 32,0c10.62,0.06 21.41,-0.24 32,0c10.59,0.24 22.26,-1.02 32,1m-175,24c38.83,0 78.99,-0.83 117,1c-43.1,2.33 -88.15,0.33 -132,1c-0.39,-2.29 2.07,-3.41 4,-3c3.72,-0.75 8.07,0.72 11,1z" id="svg_6"/>
  </g>
  <g fill="None" fill-opacity="0" id="svg_7" stroke="#252829" stroke-opacity="1" stroke-width="0.3">
   <path d="m649,131c-8.45,-0.57 -15.92,11.61 -9.23,17.23c6.69,5.61 18.5,-1.83 18.23,-8.23c-5.22,2.74 -10.09,11.94 -16.75,5.75c-6.65,-6.19 6.03,-11.14 7.75,-14.75z" id="svg_8"/>
  </g>
  <g fill="None" fill-opacity="0" id="svg_9" stroke="#272928" stroke-opacity="1" stroke-width="0.3">
   <path d="m664,136c-5.61,-1.31 -13.53,0.48 -18,4c5.19,1.46 13.08,-1.41 18,-4z" id="svg_10"/>
  </g>
  <g fill="None" fill-opacity="0" id="svg_11" stroke="#0B0606" stroke-opacity="1" stroke-width="0.3">
   <path d="m674,144c6.76,3.28 17.35,-1.45 25,0c7.65,1.45 16.91,-0.59 25,0c8.09,0.59 17.78,-0.2 26,0c8.22,0.2 16.84,0.1 25,0c8.16,-0.1 17.02,0.46 25,0c7.98,-0.46 18.55,1.98 24,-2c-5.53,-3.13 -15.51,1.42 -22,0c-6.49,-1.42 -15.11,0.67 -22,0c-6.89,-0.67 -15.02,0.35 -22,0c-6.98,-0.35 -15.15,0.27 -22,0c-6.85,-0.27 -15.61,0.38 -22,0c-6.39,-0.38 -16.71,0.74 -22,0c-5.29,-0.74 -19.27,0.73 -18,2z" id="svg_12"/>
  </g>
  <g fill="None" fill-opacity="0" id="svg_13" stroke="#747371" stroke-opacity="1" stroke-width="0.3">
   <path d="m674,144c3.57,3.56 11.67,-0.01 17,1c5.33,1.01 10.76,-0.45 17,0c6.24,0.45 9.46,-0.19 17,0c7.54,0.19 8.32,-0.09 18,0c9.68,0.09 24.35,-0.11 34,0c9.65,0.11 10.88,-0.48 18,0c7.12,0.48 11.95,-1.27 17,0c5.05,1.27 14.23,-1.74 12,-3c-5.45,3.98 -16.02,1.54 -24,2c-7.98,0.46 -16.84,-0.1 -25,0c-8.16,0.1 -16.78,0.2 -25,0c-8.22,-0.2 -17.91,0.59 -26,0c-8.09,-0.59 -17.35,1.45 -25,0c-7.65,-1.45 -18.24,3.28 -25,0z" id="svg_14"/>
  </g>
  <g fill="None" fill-opacity="0" id="svg_15" stroke="#252426" stroke-opacity="1" stroke-width="0.3">
   <path d="m789,168c-8.64,0.03 -17.37,-0.03 -26,0c-8.63,0.03 -17.4,-0.06 -26,0c-8.6,0.06 -17.47,-0.14 -26,0c-8.53,0.14 -17.64,-0.3 -26,0c-8.36,0.3 -18.01,-0.67 -26,0c-7.99,0.67 -19.32,-2.82 -23,3c10.47,-0.06 21.59,0.07 32,0c10.41,-0.07 20.74,0.15 31,0c10.26,-0.15 20.93,0.32 31,0c10.07,-0.32 21.29,0.7 31,0c9.71,-0.7 21.75,2.9 28,-3z" id="svg_16"/>
  </g>
  <g fill="None" fill-opacity="0" id="svg_17" stroke="#747372" stroke-opacity="1" stroke-width="0.3">
   <path d="m581,199c0,-4 0,-8 0,-12c-0.36,3.71 -0.37,8.23 0,12z" id="svg_18"/>
  </g>
  <g fill="None" fill-opacity="0" id="svg_19" stroke="#959393" stroke-opacity="1" stroke-width="0.3">
   <path d="m636,193c9.35,0.07 18.65,-0.09 28,0c9.35,0.09 18.63,-0.17 28,0c9.37,0.17 19.71,-0.35 29,0c9.29,0.35 18.94,-0.79 28,0c9.06,0.79 19.36,-1.76 28,0c8.64,1.76 21.28,-3.75 29,0c-3.39,-3.39 -12.05,-0.07 -17,-1c-4.95,-0.93 -11.65,0.42 -17,0c-5.35,-0.42 -11.47,0.18 -17,0c-5.53,-0.18 -11.39,0.07 -17,0c-5.61,-0.07 -11.33,0 -17,0c-5.67,0 -12.4,-0.05 -18,0c-5.6,0.05 -11.66,-0.15 -17,0c-5.34,0.15 -12.13,-0.34 -17,0c-4.87,0.34 -13.13,-0.77 -17,0c-3.87,0.77 -14.97,-2.16 -16,1z" id="svg_20"/>
  </g>
  <g fill="None" fill-opacity="0" id="svg_21" stroke="#040202" stroke-opacity="1" stroke-width="0.3">
   <path d="m806,193c-7.72,-3.75 -20.36,1.76 -29,0c-8.64,-1.76 -18.94,0.79 -28,0c-9.06,-0.79 -18.71,0.35 -28,0c-9.29,-0.35 -19.63,0.17 -29,0c-9.37,-0.17 -18.65,0.09 -28,0c-9.35,-0.09 -18.65,0.07 -28,0c-0.84,2.57 11.89,2.14 16,2c4.11,-0.14 12.29,0.06 18,0c5.71,-0.06 9.51,0.02 17,0c7.49,-0.02 7.98,-0.01 18,0c10.02,0.01 24.97,-0.01 35,0c10.03,0.01 10.4,-0.08 18,0c7.6,0.08 11,-0.23 17,0c6,0.23 13.26,-0.48 18,0c4.74,0.49 14.7,-0.3 13,-2z" id="svg_22"/>
  </g>
  <g fill="None" fill-opacity="0" id="svg_23" stroke="#484647" stroke-opacity="1" stroke-width="0.3">
   <path d="m827,223c-11.49,3.68 -25.87,-1.66 -38,0c-12.13,1.66 -25.58,-0.76 -38,0c-12.42,0.76 -25.45,-0.35 -38,0c-12.55,0.35 -25.39,-0.18 -38,0c-12.61,0.18 -25.38,-0.14 -38,0c62.1,-2.33 126.15,-0.33 189,-1c-9.74,-2.02 -21.41,-0.76 -32,-1c-10.59,-0.24 -21.38,0.06 -32,0c-10.62,-0.06 -21.38,-0.09 -32,0c-10.62,0.09 -22.51,-0.28 -33,0c-10.49,0.28 -21.91,-0.69 -32,0c-10.09,0.69 -22.39,-2.9 -29,3c7.2,0 14.84,0.01 22,0c7.16,-0.01 13.9,0.01 21,0c7.1,-0.01 13.9,0.02 21,0c7.1,-0.02 14.94,0.05 22,0c7.06,-0.05 14.07,0.11 21,0c6.93,-0.11 14.25,0.24 21,0c6.75,-0.24 15.68,0.51 22,0c6.32,-0.51 15.79,1.17 21,0c5.21,-1.17 17.72,3.08 20,-1z" id="svg_24"/>
  </g>
  <g fill="None" fill-opacity="0" id="svg_25" stroke="#070203" stroke-opacity="1" stroke-width="0.3">
   <path d="m827,223c0.1,-0.18 -0.7,-0.78 -1,-1c-62.85,0.67 -126.9,-1.33 -189,1c12.62,-0.14 25.39,0.18 38,0c12.61,-0.18 25.45,0.35 38,0c12.55,-0.35 25.58,0.76 38,0c12.42,-0.76 25.87,1.66 38,0c12.13,-1.66 26.51,3.68 38,0z" id="svg_26"/>
  </g>
  <g fill="None" fill-opacity="0" id="svg_27" stroke="#0B0708" stroke-opacity="1" stroke-width="0.3">
   <path d="m651,246c-3.15,0 -8.79,-1.23 -11,-1c-1.93,-0.41 -4.39,0.71 -4,3c43.85,-0.67 88.9,1.33 132,-1c-38.01,-1.83 -78.17,-1 -117,-1z" id="svg_28"/>
  </g>
  <g fill="None" fill-opacity="0" id="svg_29" stroke="#7B797A" stroke-opacity="1" stroke-width="0.3">
   <path d="m651,246c-2.93,-0.28 -7.28,-1.75 -11,-1c2.21,-0.23 7.85,1 11,1z" id="svg_30"/>
  </g>
  <g fill="None" fill-opacity="0" id="svg_31" stroke="#373838" stroke-opacity="1" stroke-width="0.3">
   <path d="m564,317c-0.1,-0.02 0,-1 0,-1c-3.88,-2.45 -9.89,-0.49 -14,1c3.82,1.81 9.52,-2.62 14,0z" id="svg_32"/>
  </g>
  <g fill="None" fill-opacity="0" id="svg_33" stroke="#0F010A" stroke-opacity="1" stroke-width="0.3">
   <path d="m564,317c3.66,1.05 7.44,3.27 10,6c-8.91,0.3 -23.4,3.99 -27,-4c-11.27,1.33 -27.18,4.76 -36.25,11.75c-9.07,6.99 -19.7,19.35 -31.75,13.25c0.1,0.02 0,1 0,1c-10.18,2.02 -24.37,-4.93 -33.75,3.25c-9.38,8.18 -12.79,17.42 -11.25,29.75c-12.59,-1.07 -22.03,8.39 -30,16c-8.9,-11.18 -0.3,-17.98 11,-19c0.94,-0.09 1.59,-0.93 2,-1c-9.27,-4.1 -23.12,7.12 -16.92,15.92c6.2,8.79 0.23,17.27 1.92,27.08c1.69,9.81 3.69,18.68 8.08,26.92c4.38,8.25 7.52,15 13,22c5.48,7 9,13.68 16.92,18.08c-8.4,19.95 -7.13,47.22 -25.25,62.75c-18.12,15.54 -54.8,5.67 -76.74,11.26c-21.95,5.59 -44.1,11.33 -61.78,25.22c-17.68,13.89 -31.26,25.42 -44.93,43.07c-13.66,17.65 -24.61,32.79 -35.53,52.47c-10.92,19.68 -18.89,44.1 -19.77,67.23c0.23,-0.5 1.75,-0.66 2,-1c0.14,-1.13 0.83,-1.36 1,-2c0,-49.64 33.16,-86.46 62.3,-124.7c29.15,-38.24 79.51,-60.3 126.7,-60.3c3.52,-0.34 7.37,-1.81 11,0c0.93,0.47 2.26,1.36 3,2c0.05,-1 -0.04,-2 0,-3c47.34,8.12 53.27,-47.93 62,-80c7.08,1.4 15.86,3.76 22,-1c-8.94,0.32 -21.1,0.45 -28.75,-6.25c-7.64,-6.7 -12.07,-14.29 -13.23,-23.77c-1.15,-9.49 4.1,-21.66 13.21,-24.75c9.11,-3.1 19.77,-3.22 26.52,6.02c6.75,9.24 12.9,3.53 17.17,-6.33c4.27,-9.85 8.59,-18.01 9.08,-28.92c14.43,9.98 38.96,12.26 51,-2c0.48,3.87 -1.71,7.05 -1,11c10.7,0.7 22.37,-3.98 28,-13c2.91,0.6 5.1,3.08 8,4c-0.81,3.5 -2.98,6.53 -4,10c-4.98,-4.77 -12.83,-0.37 -9.67,5.67c3.16,6.04 9.07,4.75 6.67,13.33c-5.15,0.37 -7.12,5.1 -6,10c1.12,4.9 8.87,3.88 6,11c-6.14,-2.68 -12.45,-1.58 -19,-1c-1.66,-10.04 2.28,-18.66 6,-27c-7.45,5.75 -7.93,11.62 -9,22c-1.07,10.38 15.17,5.31 22,9c2.74,10.86 -6.85,20.53 -17,21c5.94,2.79 14.71,-1.46 17,-8c3.35,20.99 6.48,52.93 -14.75,66.25c-21.22,13.32 -48.37,5.34 -69.25,-3.25c0.13,7.75 6.87,13.02 11,19c3.53,3.53 7.4,7.67 11,11c3.68,2.9 12.13,11.26 17,11c0.34,-0.02 1.99,-1.89 3,-1c0.59,-9.54 3.84,-18.38 4,-28c26.15,1.63 42,-19.88 42,-44c0,-5.33 0,-10.67 0,-16c-0.92,-8.24 0.05,-14.57 -1,-23c-1.06,-8.42 -0.41,-13.57 -1,-23c-0.59,-9.43 0.28,-13.16 10.3,-13.7c10.02,-0.54 -1.28,-15.19 -7.3,-9.3c0.15,-3.29 3.47,-5.55 3,-9c21.3,7.21 37.29,-12.66 37,-31c-0.29,-18.34 -13.18,-32.71 -29,-39c1.72,-2.05 5.45,-0.63 8,-1c0.35,-0.05 0.8,-0.98 1,-1c-5.37,-0.43 -13.01,1.2 -17.77,-1.23c-4.76,-2.43 -7.16,-4.52 -12.23,-5.77c0,0 -0.1,0.98 0,1z" id="svg_34"/>
  </g>
  <g fill="None" fill-opacity="0" id="svg_35" stroke="#3A3D3C" stroke-opacity="1" stroke-width="0.3">
   <path d="m593,324c9.88,-1.41 29.79,10.19 16,20c17.44,-9.26 -4.06,-20.13 -15,-21c-0.2,0.02 -0.65,0.95 -1,1z" id="svg_36"/>
  </g>
  <g fill="None" fill-opacity="0" id="svg_37" stroke="#2C2C2E" stroke-opacity="1" stroke-width="0.3">
   <path d="m430,354c0.26,-0.25 1,0 1,0c2.03,-12.76 8.33,-16.2 20,-19c11.67,-2.8 18.25,10.69 28,10c0,0 0.1,-0.98 0,-1c-10.66,-2.16 -17,-13.18 -29.33,-10.33c-12.33,2.85 -17.62,7.68 -19.67,20.33z" id="svg_38"/>
  </g>
  <g fill="None" fill-opacity="0" id="svg_39" stroke="#212222" stroke-opacity="1" stroke-width="0.3">
   <path d="m431,338c-19.02,4.55 -13.64,29.5 1,37c-2.48,-6.99 -9.74,-10.82 -11.22,-18.78c-1.48,-7.96 3.84,-14.01 10.22,-18.22z" id="svg_40"/>
  </g>
  <g fill="None" fill-opacity="0" id="svg_41" stroke="#2A2A2A" stroke-opacity="1" stroke-width="0.3">
   <path d="m615,372c11.47,-0.4 15.2,-19.82 5,-24c6.52,7.9 3.79,19.11 -5,24z" id="svg_42"/>
  </g>
  <g fill="None" fill-opacity="0" id="svg_43" stroke="#585757" stroke-opacity="1" stroke-width="0.3">
   <path d="m431,354c0,0 -0.74,-0.25 -1,0c-1.72,1.57 -1.5,6.36 0,8c-0.26,-2.87 0.58,-5.33 1,-8z" id="svg_44"/>
  </g>
  <g fill="None" fill-opacity="0" id="svg_45" stroke="#454849" stroke-opacity="1" stroke-width="0.3">
   <path d="m415,375c3.13,1.06 8.82,3.17 12,1c-3.59,0.34 -6.64,-1.62 -10,-2c-0.41,0.07 -1.06,0.91 -2,1z" id="svg_46"/>
  </g>
  <g fill="None" fill-opacity="0" id="svg_47" stroke="#FAFAFA" stroke-opacity="1" stroke-width="0.3">
   <path d="m382,560c5.76,5 7.41,14.4 12.77,20.23c5.36,5.83 9.88,12.84 16.31,17.69c6.44,4.85 12.2,11.13 19.15,14.85c6.95,3.72 14.49,10.11 21.99,12.01c7.51,1.89 17.35,9.95 24.85,9.15c7.5,-0.81 4.56,-18.74 9.25,-24.61c4.69,-5.86 7.64,-14.59 14.43,-19.57c6.79,-4.98 13.37,-9.62 21.25,-12.75c-0.81,-5.38 2.51,-9.67 2,-15c-4.87,0.26 -13.32,-8.1 -17,-11c-4.05,-3.2 -7.7,-7.14 -11,-11c-4.13,-5.98 -10.87,-11.25 -11,-19c20.88,8.59 48.03,16.57 69.25,3.25c21.23,-13.32 18.1,-45.26 14.75,-66.25c-2.29,6.54 -11.06,10.79 -17,8c10.15,-0.47 19.74,-10.14 17,-21c-6.83,-3.69 -23.07,1.38 -22,-9c1.07,-10.38 1.55,-16.25 9,-22c-3.72,8.34 -7.66,16.96 -6,27c6.55,-0.58 12.86,-1.68 19,1c2.87,-7.12 -4.88,-6.1 -6,-11c-1.12,-4.9 0.85,-9.63 6,-10c2.4,-8.58 -3.51,-7.29 -6.67,-13.33c-3.16,-6.04 4.69,-10.44 9.67,-5.67c1.02,-3.47 3.19,-6.5 4,-10c-2.9,-0.92 -5.09,-3.4 -8,-4c-5.63,9.02 -17.3,13.7 -28,13c-0.71,-3.95 1.48,-7.13 1,-11c-12.04,14.26 -36.57,11.98 -51,2c-0.49,10.91 -4.81,19.07 -9.08,28.92c-4.27,9.86 -10.42,15.57 -17.17,6.33c-6.75,-9.24 -17.41,-9.12 -26.52,-6.02c-9.11,3.09 -14.36,15.26 -13.21,24.75c1.16,9.48 5.59,17.07 13.23,23.77c7.65,6.7 19.81,6.57 28.75,6.25c-6.14,4.76 -14.92,2.4 -22,1c-8.73,32.07 -14.66,88.12 -62,80c-0.04,1 0.05,2 0,3m149,-160c5.1,2.56 1,10.95 -3.7,12.3c-4.7,1.36 -10.36,5.03 -15.99,1.39c-5.64,-3.63 -0.51,-8.4 4.71,-8.67c5.23,-0.26 8.95,-8.05 14.98,-5.02m-6,21c6.14,1.8 4.3,14.83 -2.68,12.66c-6.98,-2.16 -4.46,-14.76 2.68,-12.66m-20,14c0.06,2.22 -2.29,3.99 -4,5c-1.87,-2.07 1.94,-5 4,-5m-51,12c-3.99,-5.02 -11.35,-6.04 -16,-10c7.68,-1.25 12.1,4.19 19.25,8.75c7.14,4.56 12.42,13.98 -0.25,13.25c-12.67,-0.73 -12.44,-6.86 -3,-12m51,-2c-1.53,7.14 -8.66,-1.28 0,0m11,5c-0.38,-7.28 7.71,-0.8 0,0m-8,1c0.07,3.04 -3.3,4.62 -6,4c1.14,-2.31 3.53,-3.77 6,-4m9,19c-9.27,19.93 23.09,25.83 34,14c-4.09,10.39 -18.38,9.32 -27.02,7.02c-8.64,-2.29 -17.77,-16.36 -6.98,-21.02z" id="svg_48"/>
  </g>
  <g fill="None" fill-opacity="0" id="svg_49" stroke="#0B0306" stroke-opacity="1" stroke-width="0.3">
   <path d="m531,400c-6.03,-3.03 -9.75,4.76 -14.98,5.02c-5.22,0.27 -10.35,5.04 -4.71,8.67c5.63,3.64 11.29,-0.03 15.99,-1.39c4.7,-1.35 8.8,-9.74 3.7,-12.3z" id="svg_50"/>
  </g>
  <g fill="None" fill-opacity="0" id="svg_51" stroke="#0D0809" stroke-opacity="1" stroke-width="0.3">
   <path d="m525,421c-7.14,-2.1 -9.66,10.5 -2.68,12.66c6.98,2.17 8.82,-10.86 2.68,-12.66z" id="svg_52"/>
  </g>
  <g fill="None" fill-opacity="0" id="svg_53" stroke="#191A1A" stroke-opacity="1" stroke-width="0.3">
   <path d="m505,435c-2.06,0 -5.87,2.93 -4,5c1.71,-1.01 4.06,-2.78 4,-5z" id="svg_54"/>
  </g>
  <g fill="None" fill-opacity="0" id="svg_55" stroke="#161617" stroke-opacity="1" stroke-width="0.3">
   <path d="m454,447c-9.44,5.14 -9.67,11.27 3,12c12.67,0.73 7.39,-8.69 0.25,-13.25c-7.15,-4.56 -11.57,-10 -19.25,-8.75c4.65,3.96 12.01,4.98 16,10m3,1c11.9,8.36 -1.32,11.79 -9,6c2.75,-2.04 5.45,-5.29 9,-6z" id="svg_56"/>
  </g>
  <g fill="None" fill-opacity="0" id="svg_57" stroke="#1A1D1D" stroke-opacity="1" stroke-width="0.3">
   <path d="m527,561c-1.01,-0.89 -2.66,0.98 -3,1c0.51,5.33 -2.81,9.62 -2,15c-7.88,3.13 -14.46,7.77 -21.25,12.75c-6.79,4.98 -9.74,13.71 -14.43,19.57c-4.69,5.87 -1.75,23.8 -9.25,24.61c-7.5,0.8 -17.34,-7.26 -24.85,-9.15c-7.5,-1.9 -15.04,-8.29 -21.99,-12.01c-6.95,-3.72 -12.71,-10 -19.15,-14.85c-6.43,-4.85 -10.95,-11.86 -16.31,-17.69c-5.36,-5.83 -7.01,-15.23 -12.77,-20.23c-0.74,-0.64 -2.07,-1.53 -3,-2c3.98,2.15 4.89,12.44 8.75,16.25c3.86,3.81 6.52,10.93 11,15c4.48,4.07 7.71,9.59 12.95,13.05c5.24,3.47 8.56,7.75 14,11c5.43,3.26 10.48,6.86 16.38,9.62c5.89,2.76 11.54,6.26 17.94,8.06c6.41,1.79 13.11,5.48 19.98,6.02c-2.31,49.83 12.86,101.96 24.33,147.67c11.46,45.71 25.15,83.94 48.67,124.33c-61.67,0 -123.33,0 -185,0c-4.4,-11.28 -8.34,-21.29 -11.98,-33.02c-3.63,-11.74 -7.21,-22.83 -9.8,-35.2c-2.58,-12.38 -4.46,-27.03 -6.22,-39.78c-1.76,-12.75 -2.74,-27.55 -4.99,-40.01c-2.25,-12.46 -0.39,-26.76 -13.09,-31.91c-12.7,-5.15 -12.07,-21.23 -13.92,-32.08c-5.36,10.99 1.11,27.71 12,34c-13.62,2.57 -24.39,-12.02 -36,-17c9.65,13.88 27.16,21.6 44,22c4.25,22 7.15,44.37 9,67c-31.27,-3.51 -61.74,-10.33 -94,-10c-10.67,0 -21.33,0 -32,0c-10.2,0 -20.39,-0.35 -30,2c-0.67,-10.99 -2.17,-21.79 -2,-33c-0.48,-4.94 -1.7,-11.35 -1,-17c-0.25,0.34 -1.77,0.5 -2,1c-1.21,57.28 11.67,111.24 31,163c-3.79,-0.2 -11.61,0.27 -15,0c-3.39,-0.27 -12.28,-0.28 -10,2c5.21,2.53 14.09,-0.95 20,0c5.91,0.95 13.9,0 20,0c22.48,-2.17 46.71,-1.01 70,-1c23.29,0.01 48.51,-1.18 71,1c12.69,0 25.3,-0.14 38,0c12.7,0.14 26.38,-0.36 39,0c12.62,0.36 25.61,-0.84 38,0c12.39,0.84 27.12,-1.82 39,0c11.88,1.82 28.05,-4.48 38,1c0.59,0.33 1.36,0.74 2,1c1.35,-0.27 0.42,-1.27 1,-2c3.43,-4.37 14.95,0.26 21,-1c6.05,-1.26 16.11,0.6 23,0c6.89,-0.6 15.79,0.34 23,0c7.21,-0.34 14.64,0.28 22,0c7.36,-0.28 15.6,0.4 23,0c7.4,-0.4 15.4,0.36 22,1c4.27,0 9.86,0.66 14,0c4.14,-0.66 10.35,1.77 14,0c0.06,-4.31 -12.24,-0.92 -17,-2c9.97,-37.24 7.52,-84.36 -0.02,-120.98c-7.55,-36.61 -12.41,-76.24 -24.05,-109.95c-11.65,-33.71 -31.3,-55.83 -60.93,-73.07c11.88,-0.28 13.16,-10.67 16,-19c2.85,-8.33 9.08,-17.28 5.98,-26.98c-3.1,-9.69 5.96,-19.45 0.01,-29.01c-5.94,-9.57 -1.15,-16.31 5.26,-22.76c6.41,-6.46 9.62,-12.67 16,-19c6.37,-6.33 9.17,-12.45 16.5,-18.5c7.32,-6.05 6.89,-15.36 -0.5,-21c-7.4,-5.63 -18.17,-8.26 -23.95,-0.45c-5.77,7.81 -10.46,11.66 -16,19c-5.53,7.35 -9.66,11.16 -15.55,18.45c-5.89,7.29 -10.68,10.3 -16,19c-5.32,8.7 -14.74,9 -23.74,7.26c-9,-1.75 -17.98,9.19 -17.01,16.99c-12.47,0.07 -18.49,19.05 -5,23c-9.15,1.82 -23.57,7.65 -19,20c-5.79,0.99 -11.03,3.85 -17,4c1.06,-4.96 2.24,-10.01 3,-15m151,-96c-2.33,2.4 -4.61,5.49 -7,8c-0.86,0.9 -0.78,0.57 -2,1c-3.02,1.07 -0.16,0.08 -1,2c-0.51,1.16 -1.67,1.78 -2,3c-7.33,-4.25 -13.21,-11.6 -20,-17c1.45,-2.98 3.28,-5.08 6,-2c-1.96,-6.51 1.85,-11.74 7,-13c2.42,-0.59 4.34,-0.86 7,-1c9.26,-0.49 20.75,9.99 12,19m-33,-1c4.08,0.53 5.54,9.95 10.25,10.75c4.7,0.8 9.74,10.45 3.72,10.22c-6.02,-0.22 -6.24,-9.04 -10.72,-10.22c-4.49,-1.18 -9.97,-11.62 -3.25,-10.75m-9,10c4.72,-8.26 7.6,2.56 13.75,6.25c6.15,3.69 8.71,13.68 1,7c-7.7,-6.69 -7.51,-7.84 -14.75,-13.25m0,2c3.92,8.45 7.33,6.42 13.75,14.25c6.42,7.82 -5.03,5.95 -8.5,-0.5c-3.47,-6.45 -15.76,-10.24 -5.25,-13.75m-6,6c5.51,6.33 11.71,12.55 18,18c-4.61,4.42 -8.11,10.86 -13,14c-1,-12.11 -12.31,-20.88 -23,-12c4.84,-6.96 11.02,-15.32 18,-20m-1,25c-4.11,0.68 -12.28,4.71 -12,-3c3.99,-1.16 12.36,-4.41 12,3m-15,-4c-1.15,10.7 10.78,7.9 17,6c4.34,13.25 11.98,29.17 6,43c-2.22,-6.47 -4.92,-13.22 -9.25,-18.75c-4.34,-5.52 -9.23,-10.11 -16,-13c-6.76,-2.9 -6.99,-16.32 2.25,-17.25m-9,7c-0.4,2.3 -0.46,5.37 -2,7c-5.23,-1.04 -0.91,-5.42 2,-7m-24,5c-10.92,7.11 11.89,16.12 14,5c-5.24,0.46 -9.31,5.16 -14,0c4.16,-8 16.46,-2.82 23.07,-0.07c6.62,2.74 15.68,6.3 18.93,13.07c-3.25,0.98 -8.01,2.61 -9,6c8.05,-0.46 10.63,-8.74 15.77,2.23c5.14,10.97 14.63,28.42 3.23,38.77c-5.05,-31.53 -33.26,-52.31 -65,-50c-2.11,-8.35 5.75,-14.3 13,-15m-1,37c-5.16,-0.2 -10.54,0.11 -15,-1c-13.75,-3.41 -12.03,-19.91 2,-19c-11.91,6.42 10.87,17.43 11,5c-3.27,2.28 -6.93,4.53 -11,1c9.3,-10.02 26.31,-2.03 38.08,2.92c11.77,4.96 16.49,18.47 21.85,29.15c5.35,10.69 7.23,31.24 -9.93,32.93c-6.71,-18.98 -11.08,-50.06 -37,-51m118,357c-10.11,0.04 -19.86,-0.06 -30,0c-10.14,0.06 -20.85,-0.11 -31,0c-10.15,0.11 -20.96,-0.23 -31,0c-10.04,0.23 -21.27,-0.5 -31,0c-9.73,0.5 -19.19,1.38 -22.92,-7.08c-3.73,-8.46 -7.55,-12.31 -10.85,-20.15c-3.31,-7.84 -6.57,-13.8 -9.54,-21.46c-2.96,-7.67 -5.87,-14.7 -8.62,-22.38c-2.74,-7.69 -4.79,-14.78 -7.39,-22.61c-2.6,-7.83 -4.27,-16.3 -6.66,-24.34c-2.38,-8.05 -3.79,-16.84 -6.01,-24.99c-2.22,-8.15 -4.81,-15.99 -6.79,-24.21c-1.98,-8.23 -3.8,-16.37 -5.22,-24.78c-1.41,-8.42 -4.55,-17.33 -5,-26c-0.44,-8.68 -4.08,-19.32 -3,-28c1.08,-8.68 -5.42,-23.63 4,-25c-7.63,-7.16 -1.1,-21.48 3.31,-30.69c4.4,-9.22 11.85,-15.69 20.39,-21.61c8.53,-5.92 21.32,-8.69 31.3,-11.7c9.12,11.71 26.7,-1.78 37,7c-0.63,3.97 -3.54,12.76 2,14c0.33,-4.64 -2.82,-10.4 3,-12c-7.92,-18.06 -36.1,4.02 -41,-15c2.26,4.07 7.5,3.06 11,1c-3.9,-17.78 19.43,-16.81 32.67,-13.67c13.24,3.14 16.2,18.49 21.65,29.35c5.46,10.85 10.03,30.67 -7.39,32.25c-17.43,1.57 -28.16,4.17 -44.94,6.06c-16.77,1.89 -18.26,19.8 -12.67,31.69c5.59,11.88 11.14,22.2 18.6,32.4c7.46,10.21 14.99,18.48 23.33,27.67c8.34,9.2 16.09,17.49 24.5,26.5c8.41,9.01 17.38,16.2 25.5,25.5c8.11,9.31 15.11,18.36 22.5,28.5c7.39,10.14 13.54,19.87 19.56,31.45c6.01,11.57 10.47,23.71 14.02,36.97c3.54,13.26 7.66,30.54 6.67,45.33m-145,-352c-0.68,3.64 -2.39,7.05 -2,11c-9.93,1.99 -4.81,-11.43 2,-11m140,193c-19.2,3.34 -38.78,6.22 -56,16c-11.86,-14.37 -26.66,-27.99 -39.25,-41.75c-12.59,-13.76 -27.14,-29.05 -37.05,-43.95c-9.92,-14.89 -28.67,-42.86 -7.67,-53.27c20.99,-10.42 48.76,1.98 62.97,-18.03c54.67,23.3 68.94,88.56 77,141m1,3c9.29,47.7 20.55,100.59 7,149c-3.46,-51.05 -28.74,-96.63 -62,-135c17.37,-7.61 35.86,-12.28 55,-14m-356,54c4.19,35.28 13.53,69.43 27,102c-52,0 -104,0 -156,0c-12.1,-36.45 -23.66,-73.31 -28,-112c52.79,-4.98 106.54,-0.46 157,10z" id="svg_58"/>
  </g>
  <g fill="None" fill-opacity="0" id="svg_59" stroke="#141415" stroke-opacity="1" stroke-width="0.3">
   <path d="m505,445c-8.66,-1.28 -1.53,7.14 0,0z" id="svg_60"/>
  </g>
  <g fill="None" fill-opacity="0" id="svg_61" stroke="#321949" stroke-opacity="1" stroke-width="0.3">
   <path d="m666,446c9.38,1.08 17.83,10.58 12,19c8.75,-9.01 -2.74,-19.49 -12,-19z" id="svg_62"/>
  </g>
  <g fill="None" fill-opacity="0" id="svg_63" stroke="#131514" stroke-opacity="1" stroke-width="0.3">
   <path d="m516,450c7.71,-0.8 -0.38,-7.28 0,0z" id="svg_64"/>
  </g>
  <g fill="None" fill-opacity="0" id="svg_65" stroke="#310C33" stroke-opacity="1" stroke-width="0.3">
   <path d="m652,460c0.11,0.35 0.79,0.73 1,1c4.44,0.64 7.63,5.12 11,8c-2.31,-2.31 -11.74,-9.92 -12,-13c-0.21,-2.52 4.76,-7.97 7,-9c-5.15,1.26 -8.96,6.49 -7,13z" id="svg_66"/>
  </g>
  <g fill="None" fill-opacity="0" id="svg_67" stroke="#C162F7" stroke-opacity="1" stroke-width="0.3">
   <path d="m659,447c-2.24,1.03 -7.21,6.48 -7,9c2.21,2.68 7.82,5.52 9.25,8.75c1.42,3.24 9.14,6.18 9.75,8.25c2.39,-2.51 4.67,-5.6 7,-8c5.83,-8.42 -2.62,-17.92 -12,-19c-2.66,0.14 -4.58,0.41 -7,1m11,6c4.33,1.86 1.1,10.1 -3.67,7.67c-4.78,-2.43 -1.05,-9.7 3.67,-7.67z" id="svg_68"/>
  </g>
  <g fill="None" fill-opacity="0" id="svg_69" stroke="#E6E6E6" stroke-opacity="1" stroke-width="0.3">
   <path d="m457,448c-3.55,0.71 -6.25,3.96 -9,6c7.68,5.79 20.9,2.36 9,-6z" id="svg_70"/>
  </g>
  <g fill="None" fill-opacity="0" id="svg_71" stroke="#151313" stroke-opacity="1" stroke-width="0.3">
   <path d="m508,451c-2.47,0.23 -4.86,1.69 -6,4c2.7,0.62 6.07,-0.96 6,-4z" id="svg_72"/>
  </g>
  <g fill="None" fill-opacity="0" id="svg_73" stroke="#380D3D" stroke-opacity="1" stroke-width="0.3">
   <path d="m670,453c-4.72,-2.03 -8.45,5.24 -3.67,7.67c4.77,2.43 8,-5.81 3.67,-7.67m0,1c3.12,1.87 -0.15,8.01 -3.67,5.67c-3.52,-2.34 0.31,-7.69 3.67,-5.67z" id="svg_74"/>
  </g>
  <g fill="None" fill-opacity="0" id="svg_75" stroke="#170E07" stroke-opacity="1" stroke-width="0.3">
   <path d="m670,454c-3.36,-2.02 -7.19,3.33 -3.67,5.67c3.52,2.34 6.79,-3.8 3.67,-5.67z" id="svg_76"/>
  </g>
  <g fill="None" fill-opacity="0" id="svg_77" stroke="#7B3A83" stroke-opacity="1" stroke-width="0.3">
   <path d="m664,469c1.01,0.86 4.13,4.7 5,5c1.22,-0.43 1.14,-0.1 2,-1c-0.61,-2.07 -8.33,-5.01 -9.75,-8.25c-1.43,-3.23 -7.04,-6.07 -9.25,-8.75c0.26,3.08 9.69,10.69 12,13z" id="svg_78"/>
  </g>
  <g fill="None" fill-opacity="0" id="svg_79" stroke="#EAE9E9" stroke-opacity="1" stroke-width="0.3">
   <path d="m668,476c-1.97,0.62 -5.78,-6.09 -7.75,-7.25c-1.98,-1.16 -5.77,-5.85 -7.25,-7.75c-0.21,-0.27 -0.89,-0.65 -1,-1c-2.72,-3.08 -4.55,-0.98 -6,2c6.79,5.4 12.67,12.75 20,17c0.33,-1.22 1.49,-1.84 2,-3z" id="svg_80"/>
  </g>
  <g fill="None" fill-opacity="0" id="svg_81" stroke="#301315" stroke-opacity="1" stroke-width="0.3">
   <path d="m668,476c0.84,-1.92 -2.02,-0.93 1,-2c-0.87,-0.3 -3.99,-4.14 -5,-5c-3.37,-2.88 -6.56,-7.36 -11,-8c1.48,1.9 5.27,6.59 7.25,7.75c1.97,1.16 5.78,7.87 7.75,7.25z" id="svg_82"/>
  </g>
  <g fill="None" fill-opacity="0" id="svg_83" stroke="#F2F1F2" stroke-opacity="1" stroke-width="0.3">
   <path d="m645,464c-6.72,-0.87 -1.24,9.57 3.25,10.75c4.48,1.18 4.7,10 10.72,10.22c6.02,0.23 0.98,-9.42 -3.72,-10.22c-4.71,-0.8 -6.17,-10.22 -10.25,-10.75z" id="svg_84"/>
  </g>
  <g fill="None" fill-opacity="0" id="svg_85" stroke="#252322" stroke-opacity="1" stroke-width="0.3">
   <path d="m517,470c-10.79,4.66 -1.66,18.73 6.98,21.02c8.64,2.3 22.93,3.37 27.02,-7.02c-10.91,11.83 -43.27,5.93 -34,-14z" id="svg_86"/>
  </g>
  <g fill="None" fill-opacity="0" id="svg_87" stroke="#E5E4E3" stroke-opacity="1" stroke-width="0.3">
   <path d="m636,474c7.24,5.41 7.05,6.56 14.75,13.25c7.71,6.68 5.15,-3.31 -1,-7c-6.15,-3.69 -9.03,-14.51 -13.75,-6.25z" id="svg_88"/>
  </g>
  <g fill="None" fill-opacity="0" id="svg_89" stroke="#807E7C" stroke-opacity="1" stroke-width="0.3">
   <path d="m573,489c0.48,-4.97 0.49,-10.96 0,-16c0,5.33 0,10.67 0,16z" id="svg_90"/>
  </g>
  <g fill="None" fill-opacity="0" id="svg_91" stroke="#EDEDEC" stroke-opacity="1" stroke-width="0.3">
   <path d="m636,476c-10.51,3.51 1.78,7.3 5.25,13.75c3.47,6.45 14.92,8.32 8.5,0.5c-6.42,-7.83 -9.83,-5.8 -13.75,-14.25z" id="svg_92"/>
  </g>
  <g fill="None" fill-opacity="0" id="svg_93" stroke="#F7F7F7" stroke-opacity="1" stroke-width="0.3">
   <path d="m630,482c-6.98,4.68 -13.16,13.04 -18,20c10.69,-8.88 22,-0.11 23,12c4.89,-3.14 8.39,-9.58 13,-14c-6.29,-5.45 -12.49,-11.67 -18,-18z" id="svg_94"/>
  </g>
  <g fill="None" fill-opacity="0" id="svg_95" stroke="#EFEFF0" stroke-opacity="1" stroke-width="0.3">
   <path d="m629,507c0.36,-7.41 -8.01,-4.16 -12,-3c-0.28,7.71 7.89,3.68 12,3z" id="svg_96"/>
  </g>
  <g fill="None" fill-opacity="0" id="svg_97" stroke="#F7F8F8" stroke-opacity="1" stroke-width="0.3">
   <path d="m614,503c-9.24,0.93 -9.01,14.35 -2.25,17.25c6.77,2.89 11.66,7.48 16,13c4.33,5.53 7.03,12.28 9.25,18.75c5.98,-13.83 -1.66,-29.75 -6,-43c-6.22,1.9 -18.15,4.7 -17,-6z" id="svg_98"/>
  </g>
  <g fill="None" fill-opacity="0" id="svg_99" stroke="#F6F5F5" stroke-opacity="1" stroke-width="0.3">
   <path d="m605,510c-2.91,1.58 -7.23,5.96 -2,7c1.54,-1.63 1.6,-4.7 2,-7z" id="svg_100"/>
  </g>
  <g fill="None" fill-opacity="0" id="svg_101" stroke="#F6F7F7" stroke-opacity="1" stroke-width="0.3">
   <path d="m581,515c-7.25,0.7 -15.11,6.65 -13,15c31.74,-2.31 59.95,18.47 65,50c11.4,-10.35 1.91,-27.8 -3.23,-38.77c-5.14,-10.97 -7.72,-2.69 -15.77,-2.23c0.99,-3.39 5.75,-5.02 9,-6c-3.25,-6.77 -12.31,-10.33 -18.93,-13.07c-6.61,-2.75 -18.91,-7.93 -23.07,0.07c4.69,5.16 8.76,0.46 14,0c-2.11,11.12 -24.92,2.11 -14,-5z" id="svg_102"/>
  </g>
  <g fill="None" fill-opacity="0" id="svg_103" stroke="#F8F8F8" stroke-opacity="1" stroke-width="0.3">
   <path d="m565,551c4.89,0.61 10.71,0.39 15,1c25.92,0.94 30.29,32.02 37,51c17.16,-1.69 15.28,-22.24 9.93,-32.93c-5.36,-10.68 -10.08,-24.19 -21.85,-29.15c-11.77,-4.95 -28.78,-12.94 -38.08,-2.92c4.07,3.53 7.73,1.28 11,-1c-0.13,12.43 -22.91,1.42 -11,-5c-14.03,-0.91 -15.75,15.59 -2,19m51,1c-1,4.07 -5.83,7.28 -10,7c1.54,-3.23 6.59,-5.42 10,-7z" id="svg_104"/>
  </g>
  <g fill="None" fill-opacity="0" id="svg_105" stroke="#100F0F" stroke-opacity="1" stroke-width="0.3">
   <path d="m676,545c4.64,-0.16 11.84,-11.68 5.68,-12.32c-6.16,-0.64 -7.48,11.82 -13.68,8.32c6.74,6.29 -7.09,6.76 -4,12c3.75,-1.25 6.07,-5.34 10,-6c1.63,3.7 7.46,5.41 7,10c-4.57,-2.05 -19.97,3.92 -14.22,9.22c5.75,5.3 14.48,-3.67 19.22,-5.22c2.61,4.55 5.41,8.98 7,14c-3.29,0.41 -18.03,1.65 -15.75,7.75c2.29,6.09 14.05,-0.65 16.75,-2.75c0.91,5.76 1.34,11.41 -3,16c7.37,1.77 6.94,-12.06 5,-17c4.09,-1.4 18.1,-5.94 15.75,-12.75c-2.35,-6.81 -15.15,3.93 -16.75,6.75c-2.02,-4.88 -4.68,-9.2 -7,-14c5.23,1.38 18.56,-10.32 12.67,-14.67c-5.88,-4.35 -12.37,11.37 -16.67,11.67c-1.42,-4.22 -5.53,-7.17 -8,-11m5,-9c-0.2,3.08 -3.53,4.88 -6,6c0.41,-2.67 3.28,-5.67 6,-6m19,11c-1.91,4.45 -6.54,7.67 -11,9c1.52,-4.36 6.39,-8.53 11,-9m-18,13c-3.73,2.7 -9.36,6.02 -14,4c2.75,-3.94 10.15,-5.41 14,-4m27,8c-2.86,3.67 -7.34,6.54 -12,7c2.79,-3.59 7.32,-9.1 12,-7m-18,10c-0.91,3.54 -8.2,5.26 -11,3c3.22,-2.52 7.39,-1.66 11,-3z" id="svg_106"/>
  </g>
  <g fill="None" fill-opacity="0" id="svg_107" stroke="#BFBFBE" stroke-opacity="1" stroke-width="0.3">
   <path d="m681,536c-2.72,0.33 -5.59,3.33 -6,6c2.47,-1.12 5.8,-2.92 6,-6z" id="svg_108"/>
  </g>
  <g fill="None" fill-opacity="0" id="svg_109" stroke="#736D6E" stroke-opacity="1" stroke-width="0.3">
   <path d="m507,551c-3.6,-3.33 -7.47,-7.47 -11,-11c3.3,3.86 6.95,7.8 11,11z" id="svg_110"/>
  </g>
  <g fill="None" fill-opacity="0" id="svg_111" stroke="#DDDEDD" stroke-opacity="1" stroke-width="0.3">
   <path d="m700,547c-4.61,0.47 -9.48,4.64 -11,9c4.46,-1.33 9.09,-4.55 11,-9z" id="svg_112"/>
  </g>
  <g fill="None" fill-opacity="0" id="svg_113" stroke="#858688" stroke-opacity="1" stroke-width="0.3">
   <path d="m580,552c-4.29,-0.61 -10.11,-0.39 -15,-1c4.46,1.11 9.84,0.8 15,1z" id="svg_114"/>
  </g>
  <g fill="None" fill-opacity="0" id="svg_115" stroke="#1F1D1F" stroke-opacity="1" stroke-width="0.3">
   <path d="m616,552c-3.41,1.58 -8.46,3.77 -10,7c4.17,0.28 9,-2.93 10,-7z" id="svg_116"/>
  </g>
  <g fill="None" fill-opacity="0" id="svg_117" stroke="#FCFCFC" stroke-opacity="1" stroke-width="0.3">
   <path d="m698,909c0.99,-14.79 -3.13,-32.07 -6.67,-45.33c-3.55,-13.26 -8.01,-25.4 -14.02,-36.97c-6.02,-11.58 -12.17,-21.31 -19.56,-31.45c-7.39,-10.14 -14.39,-19.19 -22.5,-28.5c-8.12,-9.3 -17.09,-16.49 -25.5,-25.5c-8.41,-9.01 -16.16,-17.3 -24.5,-26.5c-8.34,-9.19 -15.87,-17.46 -23.33,-27.67c-7.46,-10.2 -13.01,-20.52 -18.6,-32.4c-5.59,-11.89 -4.1,-29.8 12.67,-31.69c16.78,-1.89 27.51,-4.49 44.94,-6.06c17.42,-1.58 12.85,-21.4 7.39,-32.25c-5.45,-10.86 -8.41,-26.21 -21.65,-29.35c-13.24,-3.14 -36.57,-4.11 -32.67,13.67c-3.5,2.06 -8.74,3.07 -11,-1c4.9,19.02 33.08,-3.06 41,15c-5.82,1.6 -2.67,7.36 -3,12c-5.54,-1.24 -2.63,-10.03 -2,-14c-10.3,-8.78 -27.88,4.71 -37,-7c-9.98,3.01 -22.77,5.78 -31.3,11.7c-8.54,5.92 -15.99,12.39 -20.39,21.61c-4.41,9.21 -10.94,23.53 -3.31,30.69c-9.42,1.37 -2.92,16.32 -4,25c-1.08,8.68 2.56,19.32 3,28c0.45,8.67 3.59,17.58 5,26c1.42,8.41 3.24,16.55 5.22,24.78c1.98,8.22 4.57,16.06 6.79,24.21c2.22,8.15 3.63,16.94 6.01,24.99c2.39,8.04 4.06,16.51 6.66,24.34c2.6,7.83 4.65,14.92 7.39,22.61c2.75,7.68 5.66,14.71 8.62,22.38c2.97,7.66 6.23,13.62 9.54,21.46c3.3,7.84 7.12,11.69 10.85,20.15c3.73,8.46 13.19,7.58 22.92,7.08c9.73,-0.5 20.96,0.23 31,0c10.04,-0.23 20.85,0.11 31,0c10.15,-0.11 20.86,0.06 31,0c10.14,-0.06 19.89,0.04 30,0m-98,-341c-3.03,3.44 -7.5,9.02 -12,8c2.29,-3.11 7.93,-8.55 12,-8z" id="svg_118"/>
  </g>
  <g fill="None" fill-opacity="0" id="svg_119" stroke="#3C6466" stroke-opacity="1" stroke-width="0.3">
   <path d="m368,558c2.57,0 8.8,-1.19 11,0c-3.63,-1.81 -7.48,-0.34 -11,0z" id="svg_120"/>
  </g>
  <g fill="None" fill-opacity="0" id="svg_121" stroke="#F0F1F2" stroke-opacity="1" stroke-width="0.3">
   <path d="m553,557c-6.81,-0.43 -11.93,12.99 -2,11c-0.39,-3.95 1.32,-7.36 2,-11z" id="svg_122"/>
  </g>
  <g fill="None" fill-opacity="0" id="svg_123" stroke="#3CABA3" stroke-opacity="1" stroke-width="0.3">
   <path d="m179,743c0,6.33 0,12.67 0,19c-0.17,11.21 1.33,22.01 2,33c9.61,-2.35 19.8,-2 30,-2c10.06,-0.97 22.01,-0.97 32,0c32.26,-0.33 62.73,6.49 94,10c-1.85,-22.63 -4.75,-45 -9,-67c-16.84,-0.4 -34.35,-8.12 -44,-22c11.61,4.98 22.38,19.57 36,17c-10.89,-6.29 -17.36,-23.01 -12,-34c1.85,10.85 1.22,26.93 13.92,32.08c12.7,5.15 10.84,19.45 13.09,31.91c2.25,12.46 3.23,27.26 4.99,40.01c1.76,12.75 3.64,27.4 6.22,39.78c2.59,12.37 6.17,23.46 9.8,35.2c3.64,11.73 7.58,21.74 11.98,33.02c61.67,0 123.33,0 185,0c-23.52,-40.39 -37.21,-78.62 -48.67,-124.33c-11.47,-45.71 -26.64,-97.84 -24.33,-147.67c-6.87,-0.54 -13.57,-4.23 -19.98,-6.02c-6.4,-1.8 -12.05,-5.3 -17.94,-8.06c-5.9,-2.76 -10.95,-6.36 -16.38,-9.62c-5.44,-3.25 -8.76,-7.53 -14,-11c-5.24,-3.46 -8.47,-8.98 -12.95,-13.05c-4.48,-4.07 -7.14,-11.19 -11,-15c-3.86,-3.81 -4.77,-14.1 -8.75,-16.25c-2.2,-1.19 -8.43,0 -11,0c-47.19,0 -97.55,22.06 -126.7,60.3c-29.14,38.24 -62.3,75.06 -62.3,124.7z" id="svg_124"/>
  </g>
  <g fill="None" fill-opacity="0" id="svg_125" stroke="#DEDEDD" stroke-opacity="1" stroke-width="0.3">
   <path d="m682,560c-3.85,-1.41 -11.25,0.06 -14,4c4.64,2.02 10.27,-1.3 14,-4z" id="svg_126"/>
  </g>
  <g fill="None" fill-opacity="0" id="svg_127" stroke="#1C1C1C" stroke-opacity="1" stroke-width="0.3">
   <path d="m600,568c-4.07,-0.55 -9.71,4.89 -12,8c4.5,1.02 8.97,-4.56 12,-8z" id="svg_128"/>
  </g>
  <g fill="None" fill-opacity="0" id="svg_129" stroke="#E2E2E1" stroke-opacity="1" stroke-width="0.3">
   <path d="m709,568c-4.68,-2.1 -9.21,3.41 -12,7c4.66,-0.46 9.14,-3.33 12,-7z" id="svg_130"/>
  </g>
  <g fill="None" fill-opacity="0" id="svg_131" stroke="#D5D5D4" stroke-opacity="1" stroke-width="0.3">
   <path d="m691,578c-3.61,1.34 -7.78,0.48 -11,3c2.8,2.26 10.09,0.54 11,-3z" id="svg_132"/>
  </g>
  <g fill="None" fill-opacity="0" id="svg_133" stroke="#3DAAA3" stroke-opacity="1" stroke-width="0.3">
   <path d="m693,750c-8.06,-52.44 -22.33,-117.7 -77,-141c-14.21,20.01 -41.98,7.61 -62.97,18.03c-21,10.41 -2.25,38.38 7.67,53.27c9.91,14.9 24.46,30.19 37.05,43.95c12.59,13.76 27.39,27.38 39.25,41.75c17.22,-9.78 36.8,-12.66 56,-16z" id="svg_134"/>
  </g>
  <g fill="None" fill-opacity="0" id="svg_135" stroke="#284A4A" stroke-opacity="1" stroke-width="0.3">
   <path d="m178,745c-0.7,5.65 0.52,12.06 1,17c0,-6.33 0,-12.67 0,-19c-0.17,0.64 -0.86,0.87 -1,2z" id="svg_136"/>
  </g>
  <g fill="None" fill-opacity="0" id="svg_137" stroke="#FAFAFA" stroke-opacity="1" stroke-width="0.3">
   <path d="m694,753c-19.14,1.72 -37.63,6.39 -55,14c33.26,38.37 58.54,83.95 62,135c13.55,-48.41 2.29,-101.3 -7,-149z" id="svg_138"/>
  </g>
  <g fill="None" fill-opacity="0" id="svg_139" stroke="#316A6C" stroke-opacity="1" stroke-width="0.3">
   <path d="m211,793c10.67,0 21.33,0 32,0c-9.99,-0.97 -21.94,-0.97 -32,0z" id="svg_140"/>
  </g>
  <g fill="None" fill-opacity="0" id="svg_141" stroke="#FCFCFC" stroke-opacity="1" stroke-width="0.3">
   <path d="m338,807c-50.46,-10.46 -104.21,-14.98 -157,-10c4.34,38.69 15.9,75.55 28,112c52,0 104,0 156,0c-13.47,-32.57 -22.81,-66.72 -27,-102z" id="svg_142"/>
  </g>
  <g fill="None" fill-opacity="0" id="svg_143" stroke="#27171A" stroke-opacity="1" stroke-width="0.3">
   <path d="m222,911c47,0 94,0 141,0c-22.49,-2.18 -47.71,-0.99 -71,-1c-23.29,-0.01 -47.52,-1.17 -70,1z" id="svg_144"/>
  </g>
  <g fill="None" fill-opacity="0" id="svg_145" stroke="#251619" stroke-opacity="1" stroke-width="0.3">
   <path d="m558,911c5.36,-3.29 15.51,1.47 22,0c6.49,-1.47 14.94,0.64 22,0c7.06,-0.64 15.72,0.3 23,0c7.28,-0.3 14.64,0.13 22,0c7.36,-0.13 14.54,0.05 22,0c7.46,-0.05 15.49,0 23,0c-6.6,-0.64 -14.6,-1.4 -22,-1c-7.4,0.4 -15.64,-0.28 -23,0c-7.36,0.28 -14.79,-0.34 -22,0c-7.21,0.34 -16.11,-0.6 -23,0c-6.89,0.6 -16.95,-1.26 -23,0c-6.05,1.26 -17.57,-3.37 -21,1z" id="svg_146"/>
  </g>
  <g fill="None" fill-opacity="0" id="svg_147" stroke="#696261" stroke-opacity="1" stroke-width="0.3">
   <path d="m555,912c-9.95,-5.48 -26.12,0.82 -38,-1c-11.88,-1.82 -26.61,0.84 -39,0c-12.39,-0.84 -25.38,0.36 -38,0c-12.62,-0.36 -26.3,0.14 -39,0c-12.7,-0.14 -25.31,0 -38,0c-47,0 -94,0 -141,0c-6.1,0 -14.09,0.95 -20,0c-5.91,-0.95 -14.79,2.53 -20,0c4.96,4.96 18.54,-0.58 26,1c7.47,1.58 18.73,-0.72 27,0c8.27,0.72 18.41,-0.33 27,0c8.59,0.33 17.24,-0.14 26,0c8.76,0.14 18.14,-0.07 27,0c8.86,0.07 18.14,-0.03 27,0c8.86,0.03 17.12,-0.02 26,0c8.88,0.02 18.07,-0.02 27,0c8.93,0.02 18.07,-0.03 27,0c8.93,0.03 18.12,-0.07 27,0c8.88,0.07 17.15,-0.16 26,0c8.85,0.16 18.17,-0.35 27,0c8.83,0.35 18.31,-0.77 27,0c8.69,0.78 17.58,-1.79 26,0z" id="svg_148"/>
  </g>
  <g fill="None" fill-opacity="0" id="svg_149" stroke="#655B5A" stroke-opacity="1" stroke-width="0.3">
   <path d="m557,913c5.29,2.17 16.93,-2.53 25,-1c8.07,1.53 19.36,-0.58 28,0c8.64,0.58 19.24,-0.01 28,0c8.76,0.01 19.52,0.55 28,0c8.48,-0.55 20.35,1.47 28,0c7.65,-1.47 20.98,4.02 26,-1c-3.65,1.77 -9.86,-0.66 -14,0c-4.14,0.66 -9.73,0 -14,0c-7.51,0 -15.54,-0.05 -23,0c-7.46,0.05 -14.64,-0.13 -22,0c-7.36,0.13 -14.72,-0.3 -22,0c-7.28,0.3 -15.94,-0.64 -23,0c-7.06,0.64 -15.51,-1.47 -22,0c-6.49,1.47 -16.64,-3.29 -22,0c-0.58,0.73 0.35,1.73 -1,2z" id="svg_150"/>
  </g>
  <g fill="#222120" fill-opacity="1" id="svg_153" stroke="None">
   <path d="m624,313c12.53,-5.77 22.07,-12.93 33.92,-21.08c11.85,-8.15 25.67,1.85 40.01,4.15c14.33,2.31 34.84,2.57 49.06,-1.08c14.23,-3.65 28.68,-7.75 41.78,-13.22c13.1,-5.47 23.39,-11.78 35.15,-18.85c11.77,-7.06 20.66,-13.54 30.83,-23.17c10.17,-9.62 17.43,-18.79 23.94,-31.06c6.52,-12.26 7.04,-31.71 1.08,-44.46c-5.96,-12.75 -12.03,-22.04 -21.52,-32.48c-9.49,-10.43 -18.13,-16.72 -30,-24c-11.87,-7.27 -24.23,-12.75 -38.18,-16.82c-13.95,-4.08 -29.91,-7.35 -45.07,-8.93c-15.15,-1.58 -34.54,-0.2 -48.99,3.01c-14.46,3.2 -29.03,7.1 -41.93,13.07c-12.91,5.96 -23.13,11.68 -34.33,19.67c-11.2,7.99 -18.7,15.85 -26.98,27.02c-8.28,11.17 -13.62,25.96 -14.77,40.23c-1.15,14.27 1.94,33.51 8.25,45.75c6.3,12.25 14.87,20.32 25.5,28.5c10.63,8.18 22.39,15.38 35.25,18.75c-4.05,13.36 -15.3,23.63 -23,35m-43,-114c-0.37,-3.77 -0.36,-8.29 0,-12c0,-17.75 7.68,-35.25 19.75,-48.25c12.07,-13 23.15,-21.82 38.48,-30.52c15.33,-8.7 32.13,-14.64 49.79,-19.21c17.67,-4.56 44.21,-6.62 62.98,-4.02c18.77,2.6 37.47,7.86 54.23,14.77c16.76,6.91 29.58,13.88 43,26c13.42,12.12 21.02,24.4 28.55,40.45c7.53,16.06 2.9,38.87 -8.03,52.53c-10.94,13.65 -20.82,24.02 -34.98,34.02c-14.16,10 -27.53,18.01 -43.85,25.15c-16.31,7.15 -34.49,13.95 -52.92,16.08c-18.44,2.13 -42.32,3.86 -59.68,-5.32c-17.35,-9.18 -28.64,8.19 -44.32,15.32c6.35,-8.4 13.55,-16.72 16,-27c-33.57,-11.14 -69.09,-39.25 -69,-78z" id="svg_154"/>
  </g>
  <g fill="#FBFBFB" fill-opacity="1" id="svg_155" stroke="None">
   <path d="m581,187c0,4 0,8 0,12c-0.09,38.75 35.43,66.86 69,78c-2.45,10.28 -9.65,18.6 -16,27c15.68,-7.13 26.97,-24.5 44.32,-15.32c17.36,9.18 41.24,7.45 59.68,5.32c18.43,-2.13 36.61,-8.93 52.92,-16.08c16.32,-7.14 29.69,-15.15 43.85,-25.15c14.16,-10 24.04,-20.37 34.98,-34.02c10.93,-13.66 15.56,-36.47 8.03,-52.53c-7.53,-16.05 -15.13,-28.33 -28.55,-40.45c-13.42,-12.12 -26.24,-19.09 -43,-26c-16.76,-6.91 -35.46,-12.17 -54.23,-14.77c-18.77,-2.6 -45.31,-0.54 -62.98,4.02c-17.66,4.57 -34.46,10.51 -49.79,19.21c-15.33,8.7 -26.41,17.52 -38.48,30.52c-12.07,13 -19.75,30.5 -19.75,48.25m68,-56c-1.72,3.61 -14.4,8.56 -7.75,14.75c6.66,6.19 11.53,-3.01 16.75,-5.75c0.27,6.4 -11.54,13.84 -18.23,8.23c-6.69,-5.62 0.78,-17.8 9.23,-17.23m15,5c-4.92,2.59 -12.81,5.46 -18,4c4.47,-3.52 12.39,-5.31 18,-4m10,8c-1.27,-1.27 12.71,-2.74 18,-2c5.29,0.74 15.61,-0.38 22,0c6.39,0.38 15.15,-0.27 22,0c6.85,0.27 15.02,-0.35 22,0c6.98,0.35 15.11,-0.67 22,0c6.89,0.67 15.51,-1.42 22,0c6.49,1.42 16.47,-3.13 22,0c2.23,1.26 -6.95,4.27 -12,3c-5.05,-1.27 -9.88,0.48 -17,0c-7.12,-0.48 -8.35,0.11 -18,0c-9.65,-0.11 -24.32,0.09 -34,0c-9.68,-0.09 -10.46,0.19 -18,0c-7.54,-0.19 -10.76,0.45 -17,0c-6.24,-0.45 -11.67,1.01 -17,0c-5.33,-1.01 -13.43,2.56 -17,-1m115,24c-6.25,5.9 -18.29,2.3 -28,3c-9.71,0.7 -20.93,-0.32 -31,0c-10.07,0.32 -20.74,-0.15 -31,0c-10.26,0.15 -20.59,-0.07 -31,0c-10.41,0.07 -21.53,-0.06 -32,0c3.68,-5.82 15.01,-2.33 23,-3c7.99,-0.67 17.64,0.3 26,0c8.36,-0.3 17.47,0.14 26,0c8.53,-0.14 17.4,0.06 26,0c8.6,-0.06 17.37,0.03 26,0c8.63,-0.03 17.36,0.03 26,0m17,25c1.7,1.7 -8.26,2.49 -13,2c-4.74,-0.48 -12,0.23 -18,0c-6,-0.23 -9.4,0.08 -17,0c-7.6,-0.08 -7.97,0.01 -18,0c-10.03,-0.01 -24.98,0.01 -35,0c-10.02,-0.01 -10.51,-0.02 -18,0c-7.49,0.02 -11.29,-0.06 -17,0c-5.71,0.06 -13.89,-0.14 -18,0c-4.11,0.14 -16.84,0.57 -16,-2c1.03,-3.16 12.13,-0.23 16,-1c3.87,-0.77 12.13,0.34 17,0c4.87,-0.34 11.66,0.15 17,0c5.34,-0.15 11.4,0.05 17,0c5.6,-0.05 12.33,0 18,0c5.67,0 11.39,-0.07 17,0c5.61,0.07 11.47,-0.18 17,0c5.53,0.18 11.65,-0.42 17,0c5.35,0.42 12.05,-0.93 17,0c4.95,0.93 13.61,-2.39 17,1m20,29c0.3,0.22 1.1,0.82 1,1c-2.28,4.08 -14.79,-0.17 -20,1c-5.21,1.17 -14.68,-0.51 -21,0c-6.32,0.51 -15.25,-0.24 -22,0c-6.75,0.24 -14.07,-0.11 -21,0c-6.93,0.11 -13.94,-0.05 -21,0c-7.06,0.05 -14.9,-0.02 -22,0c-7.1,0.02 -13.9,-0.01 -21,0c-7.1,0.01 -13.84,-0.01 -21,0c-7.16,0.01 -14.8,0 -22,0c6.61,-5.9 18.91,-2.31 29,-3c10.09,-0.69 21.51,0.28 32,0c10.49,-0.28 22.38,0.09 33,0c10.62,-0.09 21.38,-0.06 32,0c10.62,0.06 21.41,-0.24 32,0c10.59,0.24 22.26,-1.02 32,1m-175,24c38.83,0 78.99,-0.83 117,1c-43.1,2.33 -88.15,0.33 -132,1c-0.39,-2.29 2.07,-3.41 4,-3c3.72,-0.75 8.07,0.72 11,1z" id="svg_156"/>
  </g>
  <g fill="#252829" fill-opacity="1" id="svg_157" stroke="None">
   <path d="m649,131c-8.45,-0.57 -15.92,11.61 -9.23,17.23c6.69,5.61 18.5,-1.83 18.23,-8.23c-5.22,2.74 -10.09,11.94 -16.75,5.75c-6.65,-6.19 6.03,-11.14 7.75,-14.75z" id="svg_158"/>
  </g>
  <g fill="#272928" fill-opacity="1" id="svg_159" stroke="None">
   <path d="m664,136c-5.61,-1.31 -13.53,0.48 -18,4c5.19,1.46 13.08,-1.41 18,-4z" id="svg_160"/>
  </g>
  <g fill="#0B0606" fill-opacity="1" id="svg_161" stroke="None">
   <path d="m674,144c6.76,3.28 17.35,-1.45 25,0c7.65,1.45 16.91,-0.59 25,0c8.09,0.59 17.78,-0.2 26,0c8.22,0.2 16.84,0.1 25,0c8.16,-0.1 17.02,0.46 25,0c7.98,-0.46 18.55,1.98 24,-2c-5.53,-3.13 -15.51,1.42 -22,0c-6.49,-1.42 -15.11,0.67 -22,0c-6.89,-0.67 -15.02,0.35 -22,0c-6.98,-0.35 -15.15,0.27 -22,0c-6.85,-0.27 -15.61,0.38 -22,0c-6.39,-0.38 -16.71,0.74 -22,0c-5.29,-0.74 -19.27,0.73 -18,2z" id="svg_162"/>
  </g>
  <g fill="#747371" fill-opacity="1" id="svg_163" stroke="None">
   <path d="m674,144c3.57,3.56 11.67,-0.01 17,1c5.33,1.01 10.76,-0.45 17,0c6.24,0.45 9.46,-0.19 17,0c7.54,0.19 8.32,-0.09 18,0c9.68,0.09 24.35,-0.11 34,0c9.65,0.11 10.88,-0.48 18,0c7.12,0.48 11.95,-1.27 17,0c5.05,1.27 14.23,-1.74 12,-3c-5.45,3.98 -16.02,1.54 -24,2c-7.98,0.46 -16.84,-0.1 -25,0c-8.16,0.1 -16.78,0.2 -25,0c-8.22,-0.2 -17.91,0.59 -26,0c-8.09,-0.59 -17.35,1.45 -25,0c-7.65,-1.45 -18.24,3.28 -25,0z" id="svg_164"/>
  </g>
  <g fill="#252426" fill-opacity="1" id="svg_165" stroke="None">
   <path d="m789,168c-8.64,0.03 -17.37,-0.03 -26,0c-8.63,0.03 -17.4,-0.06 -26,0c-8.6,0.06 -17.47,-0.14 -26,0c-8.53,0.14 -17.64,-0.3 -26,0c-8.36,0.3 -18.01,-0.67 -26,0c-7.99,0.67 -19.32,-2.82 -23,3c10.47,-0.06 21.59,0.07 32,0c10.41,-0.07 20.74,0.15 31,0c10.26,-0.15 20.93,0.32 31,0c10.07,-0.32 21.29,0.7 31,0c9.71,-0.7 21.75,2.9 28,-3z" id="svg_166"/>
  </g>
  <g fill="#747372" fill-opacity="1" id="svg_167" stroke="None">
   <path d="m581,199c0,-4 0,-8 0,-12c-0.36,3.71 -0.37,8.23 0,12z" id="svg_168"/>
  </g>
  <g fill="#959393" fill-opacity="1" id="svg_169" stroke="None">
   <path d="m636,193c9.35,0.07 18.65,-0.09 28,0c9.35,0.09 18.63,-0.17 28,0c9.37,0.17 19.71,-0.35 29,0c9.29,0.35 18.94,-0.79 28,0c9.06,0.79 19.36,-1.76 28,0c8.64,1.76 21.28,-3.75 29,0c-3.39,-3.39 -12.05,-0.07 -17,-1c-4.95,-0.93 -11.65,0.42 -17,0c-5.35,-0.42 -11.47,0.18 -17,0c-5.53,-0.18 -11.39,0.07 -17,0c-5.61,-0.07 -11.33,0 -17,0c-5.67,0 -12.4,-0.05 -18,0c-5.6,0.05 -11.66,-0.15 -17,0c-5.34,0.15 -12.13,-0.34 -17,0c-4.87,0.34 -13.13,-0.77 -17,0c-3.87,0.77 -14.97,-2.16 -16,1z" id="svg_170"/>
  </g>
  <g fill="#040202" fill-opacity="1" id="svg_171" stroke="None">
   <path d="m806,193c-7.72,-3.75 -20.36,1.76 -29,0c-8.64,-1.76 -18.94,0.79 -28,0c-9.06,-0.79 -18.71,0.35 -28,0c-9.29,-0.35 -19.63,0.17 -29,0c-9.37,-0.17 -18.65,0.09 -28,0c-9.35,-0.09 -18.65,0.07 -28,0c-0.84,2.57 11.89,2.14 16,2c4.11,-0.14 12.29,0.06 18,0c5.71,-0.06 9.51,0.02 17,0c7.49,-0.02 7.98,-0.01 18,0c10.02,0.01 24.97,-0.01 35,0c10.03,0.01 10.4,-0.08 18,0c7.6,0.08 11,-0.23 17,0c6,0.23 13.26,-0.48 18,0c4.74,0.49 14.7,-0.3 13,-2z" id="svg_172"/>
  </g>
  <g fill="#484647" fill-opacity="1" id="svg_173" stroke="None">
   <path d="m827,223c-11.49,3.68 -25.87,-1.66 -38,0c-12.13,1.66 -25.58,-0.76 -38,0c-12.42,0.76 -25.45,-0.35 -38,0c-12.55,0.35 -25.39,-0.18 -38,0c-12.61,0.18 -25.38,-0.14 -38,0c62.1,-2.33 126.15,-0.33 189,-1c-9.74,-2.02 -21.41,-0.76 -32,-1c-10.59,-0.24 -21.38,0.06 -32,0c-10.62,-0.06 -21.38,-0.09 -32,0c-10.62,0.09 -22.51,-0.28 -33,0c-10.49,0.28 -21.91,-0.69 -32,0c-10.09,0.69 -22.39,-2.9 -29,3c7.2,0 14.84,0.01 22,0c7.16,-0.01 13.9,0.01 21,0c7.1,-0.01 13.9,0.02 21,0c7.1,-0.02 14.94,0.05 22,0c7.06,-0.05 14.07,0.11 21,0c6.93,-0.11 14.25,0.24 21,0c6.75,-0.24 15.68,0.51 22,0c6.32,-0.51 15.79,1.17 21,0c5.21,-1.17 17.72,3.08 20,-1z" id="svg_174"/>
  </g>
  <g fill="#070203" fill-opacity="1" id="svg_175" stroke="None">
   <path d="m827,223c0.1,-0.18 -0.7,-0.78 -1,-1c-62.85,0.67 -126.9,-1.33 -189,1c12.62,-0.14 25.39,0.18 38,0c12.61,-0.18 25.45,0.35 38,0c12.55,-0.35 25.58,0.76 38,0c12.42,-0.76 25.87,1.66 38,0c12.13,-1.66 26.51,3.68 38,0z" id="svg_176"/>
  </g>
  <g fill="#0B0708" fill-opacity="1" id="svg_177" stroke="None">
   <path d="m651,246c-3.15,0 -8.79,-1.23 -11,-1c-1.93,-0.41 -4.39,0.71 -4,3c43.85,-0.67 88.9,1.33 132,-1c-38.01,-1.83 -78.17,-1 -117,-1z" id="svg_178"/>
  </g>
  <g fill="#7B797A" fill-opacity="1" id="svg_179" stroke="None">
   <path d="m651,246c-2.93,-0.28 -7.28,-1.75 -11,-1c2.21,-0.23 7.85,1 11,1z" id="svg_180"/>
  </g>
  <g fill="#373838" fill-opacity="1" id="svg_181" stroke="None">
   <path d="m564,317c-0.1,-0.02 0,-1 0,-1c-3.88,-2.45 -9.89,-0.49 -14,1c3.82,1.81 9.52,-2.62 14,0z" id="svg_182"/>
  </g>
  <g fill="#0F010A" fill-opacity="1" id="svg_183" stroke="None">
   <path d="m564,317c3.66,1.05 7.44,3.27 10,6c-8.91,0.3 -23.4,3.99 -27,-4c-11.27,1.33 -27.18,4.76 -36.25,11.75c-9.07,6.99 -19.7,19.35 -31.75,13.25c0.1,0.02 0,1 0,1c-10.18,2.02 -24.37,-4.93 -33.75,3.25c-9.38,8.18 -12.79,17.42 -11.25,29.75c-12.59,-1.07 -22.03,8.39 -30,16c-8.9,-11.18 -0.3,-17.98 11,-19c0.94,-0.09 1.59,-0.93 2,-1c-9.27,-4.1 -23.12,7.12 -16.92,15.92c6.2,8.79 0.23,17.27 1.92,27.08c1.69,9.81 3.69,18.68 8.08,26.92c4.38,8.25 7.52,15 13,22c5.48,7 9,13.68 16.92,18.08c-8.4,19.95 -7.13,47.22 -25.25,62.75c-18.12,15.54 -54.8,5.67 -76.74,11.26c-21.95,5.59 -44.1,11.33 -61.78,25.22c-17.68,13.89 -31.26,25.42 -44.93,43.07c-13.66,17.65 -24.61,32.79 -35.53,52.47c-10.92,19.68 -18.89,44.1 -19.77,67.23c0.23,-0.5 1.75,-0.66 2,-1c0.14,-1.13 0.83,-1.36 1,-2c0,-49.64 33.16,-86.46 62.3,-124.7c29.15,-38.24 79.51,-60.3 126.7,-60.3c3.52,-0.34 7.37,-1.81 11,0c0.93,0.47 2.26,1.36 3,2c0.05,-1 -0.04,-2 0,-3c47.34,8.12 53.27,-47.93 62,-80c7.08,1.4 15.86,3.76 22,-1c-8.94,0.32 -21.1,0.45 -28.75,-6.25c-7.64,-6.7 -12.07,-14.29 -13.23,-23.77c-1.15,-9.49 4.1,-21.66 13.21,-24.75c9.11,-3.1 19.77,-3.22 26.52,6.02c6.75,9.24 12.9,3.53 17.17,-6.33c4.27,-9.85 8.59,-18.01 9.08,-28.92c14.43,9.98 38.96,12.26 51,-2c0.48,3.87 -1.71,7.05 -1,11c10.7,0.7 22.37,-3.98 28,-13c2.91,0.6 5.1,3.08 8,4c-0.81,3.5 -2.98,6.53 -4,10c-4.98,-4.77 -12.83,-0.37 -9.67,5.67c3.16,6.04 9.07,4.75 6.67,13.33c-5.15,0.37 -7.12,5.1 -6,10c1.12,4.9 8.87,3.88 6,11c-6.14,-2.68 -12.45,-1.58 -19,-1c-1.66,-10.04 2.28,-18.66 6,-27c-7.45,5.75 -7.93,11.62 -9,22c-1.07,10.38 15.17,5.31 22,9c2.74,10.86 -6.85,20.53 -17,21c5.94,2.79 14.71,-1.46 17,-8c3.35,20.99 6.48,52.93 -14.75,66.25c-21.22,13.32 -48.37,5.34 -69.25,-3.25c0.13,7.75 6.87,13.02 11,19c3.53,3.53 7.4,7.67 11,11c3.68,2.9 12.13,11.26 17,11c0.34,-0.02 1.99,-1.89 3,-1c0.59,-9.54 3.84,-18.38 4,-28c26.15,1.63 42,-19.88 42,-44c0,-5.33 0,-10.67 0,-16c-0.92,-8.24 0.05,-14.57 -1,-23c-1.06,-8.42 -0.41,-13.57 -1,-23c-0.59,-9.43 0.28,-13.16 10.3,-13.7c10.02,-0.54 -1.28,-15.19 -7.3,-9.3c0.15,-3.29 3.47,-5.55 3,-9c21.3,7.21 37.29,-12.66 37,-31c-0.29,-18.34 -13.18,-32.71 -29,-39c1.72,-2.05 5.45,-0.63 8,-1c0.35,-0.05 0.8,-0.98 1,-1c-5.37,-0.43 -13.01,1.2 -17.77,-1.23c-4.76,-2.43 -7.16,-4.52 -12.23,-5.77c0,0 -0.1,0.98 0,1z" id="svg_184"/>
  </g>
  <g fill="#3A3D3C" fill-opacity="1" id="svg_185" stroke="None">
   <path d="m593,324c9.88,-1.41 29.79,10.19 16,20c17.44,-9.26 -4.06,-20.13 -15,-21c-0.2,0.02 -0.65,0.95 -1,1z" id="svg_186"/>
  </g>
  <g fill="#2C2C2E" fill-opacity="1" id="svg_187" stroke="None">
   <path d="m430,354c0.26,-0.25 1,0 1,0c2.03,-12.76 8.33,-16.2 20,-19c11.67,-2.8 18.25,10.69 28,10c0,0 0.1,-0.98 0,-1c-10.66,-2.16 -17,-13.18 -29.33,-10.33c-12.33,2.85 -17.62,7.68 -19.67,20.33z" id="svg_188"/>
  </g>
  <g fill="#212222" fill-opacity="1" id="svg_189" stroke="None">
   <path d="m431,338c-19.02,4.55 -13.64,29.5 1,37c-2.48,-6.99 -9.74,-10.82 -11.22,-18.78c-1.48,-7.96 3.84,-14.01 10.22,-18.22z" id="svg_190"/>
  </g>
  <g fill="#2A2A2A" fill-opacity="1" id="svg_191" stroke="None">
   <path d="m615,372c11.47,-0.4 15.2,-19.82 5,-24c6.52,7.9 3.79,19.11 -5,24z" id="svg_192"/>
  </g>
  <g fill="#585757" fill-opacity="1" id="svg_193" stroke="None">
   <path d="m431,354c0,0 -0.74,-0.25 -1,0c-1.72,1.57 -1.5,6.36 0,8c-0.26,-2.87 0.58,-5.33 1,-8z" id="svg_194"/>
  </g>
  <g fill="#454849" fill-opacity="1" id="svg_195" stroke="None">
   <path d="m415,375c3.13,1.06 8.82,3.17 12,1c-3.59,0.34 -6.64,-1.62 -10,-2c-0.41,0.07 -1.06,0.91 -2,1z" id="svg_196"/>
  </g>
  <g fill="#FAFAFA" fill-opacity="1" id="svg_197" stroke="None">
   <path d="m382,560c5.76,5 7.41,14.4 12.77,20.23c5.36,5.83 9.88,12.84 16.31,17.69c6.44,4.85 12.2,11.13 19.15,14.85c6.95,3.72 14.49,10.11 21.99,12.01c7.51,1.89 17.35,9.95 24.85,9.15c7.5,-0.81 4.56,-18.74 9.25,-24.61c4.69,-5.86 7.64,-14.59 14.43,-19.57c6.79,-4.98 13.37,-9.62 21.25,-12.75c-0.81,-5.38 2.51,-9.67 2,-15c-4.87,0.26 -13.32,-8.1 -17,-11c-4.05,-3.2 -7.7,-7.14 -11,-11c-4.13,-5.98 -10.87,-11.25 -11,-19c20.88,8.59 48.03,16.57 69.25,3.25c21.23,-13.32 18.1,-45.26 14.75,-66.25c-2.29,6.54 -11.06,10.79 -17,8c10.15,-0.47 19.74,-10.14 17,-21c-6.83,-3.69 -23.07,1.38 -22,-9c1.07,-10.38 1.55,-16.25 9,-22c-3.72,8.34 -7.66,16.96 -6,27c6.55,-0.58 12.86,-1.68 19,1c2.87,-7.12 -4.88,-6.1 -6,-11c-1.12,-4.9 0.85,-9.63 6,-10c2.4,-8.58 -3.51,-7.29 -6.67,-13.33c-3.16,-6.04 4.69,-10.44 9.67,-5.67c1.02,-3.47 3.19,-6.5 4,-10c-2.9,-0.92 -5.09,-3.4 -8,-4c-5.63,9.02 -17.3,13.7 -28,13c-0.71,-3.95 1.48,-7.13 1,-11c-12.04,14.26 -36.57,11.98 -51,2c-0.49,10.91 -4.81,19.07 -9.08,28.92c-4.27,9.86 -10.42,15.57 -17.17,6.33c-6.75,-9.24 -17.41,-9.12 -26.52,-6.02c-9.11,3.09 -14.36,15.26 -13.21,24.75c1.16,9.48 5.59,17.07 13.23,23.77c7.65,6.7 19.81,6.57 28.75,6.25c-6.14,4.76 -14.92,2.4 -22,1c-8.73,32.07 -14.66,88.12 -62,80c-0.04,1 0.05,2 0,3m149,-160c5.1,2.56 1,10.95 -3.7,12.3c-4.7,1.36 -10.36,5.03 -15.99,1.39c-5.64,-3.63 -0.51,-8.4 4.71,-8.67c5.23,-0.26 8.95,-8.05 14.98,-5.02m-6,21c6.14,1.8 4.3,14.83 -2.68,12.66c-6.98,-2.16 -4.46,-14.76 2.68,-12.66m-20,14c0.06,2.22 -2.29,3.99 -4,5c-1.87,-2.07 1.94,-5 4,-5m-51,12c-3.99,-5.02 -11.35,-6.04 -16,-10c7.68,-1.25 12.1,4.19 19.25,8.75c7.14,4.56 12.42,13.98 -0.25,13.25c-12.67,-0.73 -12.44,-6.86 -3,-12m51,-2c-1.53,7.14 -8.66,-1.28 0,0m11,5c-0.38,-7.28 7.71,-0.8 0,0m-8,1c0.07,3.04 -3.3,4.62 -6,4c1.14,-2.31 3.53,-3.77 6,-4m9,19c-9.27,19.93 23.09,25.83 34,14c-4.09,10.39 -18.38,9.32 -27.02,7.02c-8.64,-2.29 -17.77,-16.36 -6.98,-21.02z" id="svg_198"/>
  </g>
  <g fill="#0B0306" fill-opacity="1" id="svg_199" stroke="None">
   <path d="m531,400c-6.03,-3.03 -9.75,4.76 -14.98,5.02c-5.22,0.27 -10.35,5.04 -4.71,8.67c5.63,3.64 11.29,-0.03 15.99,-1.39c4.7,-1.35 8.8,-9.74 3.7,-12.3z" id="svg_200"/>
  </g>
  <g fill="#0D0809" fill-opacity="1" id="svg_201" stroke="None">
   <path d="m525,421c-7.14,-2.1 -9.66,10.5 -2.68,12.66c6.98,2.17 8.82,-10.86 2.68,-12.66z" id="svg_202"/>
  </g>
  <g fill="#191A1A" fill-opacity="1" id="svg_203" stroke="None">
   <path d="m505,435c-2.06,0 -5.87,2.93 -4,5c1.71,-1.01 4.06,-2.78 4,-5z" id="svg_204"/>
  </g>
  <g fill="#161617" fill-opacity="1" id="svg_205" stroke="None">
   <path d="m454,447c-9.44,5.14 -9.67,11.27 3,12c12.67,0.73 7.39,-8.69 0.25,-13.25c-7.15,-4.56 -11.57,-10 -19.25,-8.75c4.65,3.96 12.01,4.98 16,10m3,1c11.9,8.36 -1.32,11.79 -9,6c2.75,-2.04 5.45,-5.29 9,-6z" id="svg_206"/>
  </g>
  <g fill="#1A1D1D" fill-opacity="1" id="svg_207" stroke="None">
   <path d="m527,561c-1.01,-0.89 -2.66,0.98 -3,1c0.51,5.33 -2.81,9.62 -2,15c-7.88,3.13 -14.46,7.77 -21.25,12.75c-6.79,4.98 -9.74,13.71 -14.43,19.57c-4.69,5.87 -1.75,23.8 -9.25,24.61c-7.5,0.8 -17.34,-7.26 -24.85,-9.15c-7.5,-1.9 -15.04,-8.29 -21.99,-12.01c-6.95,-3.72 -12.71,-10 -19.15,-14.85c-6.43,-4.85 -10.95,-11.86 -16.31,-17.69c-5.36,-5.83 -7.01,-15.23 -12.77,-20.23c-0.74,-0.64 -2.07,-1.53 -3,-2c3.98,2.15 4.89,12.44 8.75,16.25c3.86,3.81 6.52,10.93 11,15c4.48,4.07 7.71,9.59 12.95,13.05c5.24,3.47 8.56,7.75 14,11c5.43,3.26 10.48,6.86 16.38,9.62c5.89,2.76 11.54,6.26 17.94,8.06c6.41,1.79 13.11,5.48 19.98,6.02c-2.31,49.83 12.86,101.96 24.33,147.67c11.46,45.71 25.15,83.94 48.67,124.33c-61.67,0 -123.33,0 -185,0c-4.4,-11.28 -8.34,-21.29 -11.98,-33.02c-3.63,-11.74 -7.21,-22.83 -9.8,-35.2c-2.58,-12.38 -4.46,-27.03 -6.22,-39.78c-1.76,-12.75 -2.74,-27.55 -4.99,-40.01c-2.25,-12.46 -0.39,-26.76 -13.09,-31.91c-12.7,-5.15 -12.07,-21.23 -13.92,-32.08c-5.36,10.99 1.11,27.71 12,34c-13.62,2.57 -24.39,-12.02 -36,-17c9.65,13.88 27.16,21.6 44,22c4.25,22 7.15,44.37 9,67c-31.27,-3.51 -61.74,-10.33 -94,-10c-10.67,0 -21.33,0 -32,0c-10.2,0 -20.39,-0.35 -30,2c-0.67,-10.99 -2.17,-21.79 -2,-33c-0.48,-4.94 -1.7,-11.35 -1,-17c-0.25,0.34 -1.77,0.5 -2,1c-1.21,57.28 11.67,111.24 31,163c-3.79,-0.2 -11.61,0.27 -15,0c-3.39,-0.27 -12.28,-0.28 -10,2c5.21,2.53 14.09,-0.95 20,0c5.91,0.95 13.9,0 20,0c22.48,-2.17 46.71,-1.01 70,-1c23.29,0.01 48.51,-1.18 71,1c12.69,0 25.3,-0.14 38,0c12.7,0.14 26.38,-0.36 39,0c12.62,0.36 25.61,-0.84 38,0c12.39,0.84 27.12,-1.82 39,0c11.88,1.82 28.05,-4.48 38,1c0.59,0.33 1.36,0.74 2,1c1.35,-0.27 0.42,-1.27 1,-2c3.43,-4.37 14.95,0.26 21,-1c6.05,-1.26 16.11,0.6 23,0c6.89,-0.6 15.79,0.34 23,0c7.21,-0.34 14.64,0.28 22,0c7.36,-0.28 15.6,0.4 23,0c7.4,-0.4 15.4,0.36 22,1c4.27,0 9.86,0.66 14,0c4.14,-0.66 10.35,1.77 14,0c0.06,-4.31 -12.24,-0.92 -17,-2c9.97,-37.24 7.52,-84.36 -0.02,-120.98c-7.55,-36.61 -12.41,-76.24 -24.05,-109.95c-11.65,-33.71 -31.3,-55.83 -60.93,-73.07c11.88,-0.28 13.16,-10.67 16,-19c2.85,-8.33 9.08,-17.28 5.98,-26.98c-3.1,-9.69 5.96,-19.45 0.01,-29.01c-5.94,-9.57 -1.15,-16.31 5.26,-22.76c6.41,-6.46 9.62,-12.67 16,-19c6.37,-6.33 9.17,-12.45 16.5,-18.5c7.32,-6.05 6.89,-15.36 -0.5,-21c-7.4,-5.63 -18.17,-8.26 -23.95,-0.45c-5.77,7.81 -10.46,11.66 -16,19c-5.53,7.35 -9.66,11.16 -15.55,18.45c-5.89,7.29 -10.68,10.3 -16,19c-5.32,8.7 -14.74,9 -23.74,7.26c-9,-1.75 -17.98,9.19 -17.01,16.99c-12.47,0.07 -18.49,19.05 -5,23c-9.15,1.82 -23.57,7.65 -19,20c-5.79,0.99 -11.03,3.85 -17,4c1.06,-4.96 2.24,-10.01 3,-15m151,-96c-2.33,2.4 -4.61,5.49 -7,8c-0.86,0.9 -0.78,0.57 -2,1c-3.02,1.07 -0.16,0.08 -1,2c-0.51,1.16 -1.67,1.78 -2,3c-7.33,-4.25 -13.21,-11.6 -20,-17c1.45,-2.98 3.28,-5.08 6,-2c-1.96,-6.51 1.85,-11.74 7,-13c2.42,-0.59 4.34,-0.86 7,-1c9.26,-0.49 20.75,9.99 12,19m-33,-1c4.08,0.53 5.54,9.95 10.25,10.75c4.7,0.8 9.74,10.45 3.72,10.22c-6.02,-0.22 -6.24,-9.04 -10.72,-10.22c-4.49,-1.18 -9.97,-11.62 -3.25,-10.75m-9,10c4.72,-8.26 7.6,2.56 13.75,6.25c6.15,3.69 8.71,13.68 1,7c-7.7,-6.69 -7.51,-7.84 -14.75,-13.25m0,2c3.92,8.45 7.33,6.42 13.75,14.25c6.42,7.82 -5.03,5.95 -8.5,-0.5c-3.47,-6.45 -15.76,-10.24 -5.25,-13.75m-6,6c5.51,6.33 11.71,12.55 18,18c-4.61,4.42 -8.11,10.86 -13,14c-1,-12.11 -12.31,-20.88 -23,-12c4.84,-6.96 11.02,-15.32 18,-20m-1,25c-4.11,0.68 -12.28,4.71 -12,-3c3.99,-1.16 12.36,-4.41 12,3m-15,-4c-1.15,10.7 10.78,7.9 17,6c4.34,13.25 11.98,29.17 6,43c-2.22,-6.47 -4.92,-13.22 -9.25,-18.75c-4.34,-5.52 -9.23,-10.11 -16,-13c-6.76,-2.9 -6.99,-16.32 2.25,-17.25m-9,7c-0.4,2.3 -0.46,5.37 -2,7c-5.23,-1.04 -0.91,-5.42 2,-7m-24,5c-10.92,7.11 11.89,16.12 14,5c-5.24,0.46 -9.31,5.16 -14,0c4.16,-8 16.46,-2.82 23.07,-0.07c6.62,2.74 15.68,6.3 18.93,13.07c-3.25,0.98 -8.01,2.61 -9,6c8.05,-0.46 10.63,-8.74 15.77,2.23c5.14,10.97 14.63,28.42 3.23,38.77c-5.05,-31.53 -33.26,-52.31 -65,-50c-2.11,-8.35 5.75,-14.3 13,-15m-1,37c-5.16,-0.2 -10.54,0.11 -15,-1c-13.75,-3.41 -12.03,-19.91 2,-19c-11.91,6.42 10.87,17.43 11,5c-3.27,2.28 -6.93,4.53 -11,1c9.3,-10.02 26.31,-2.03 38.08,2.92c11.77,4.96 16.49,18.47 21.85,29.15c5.35,10.69 7.23,31.24 -9.93,32.93c-6.71,-18.98 -11.08,-50.06 -37,-51m118,357c-10.11,0.04 -19.86,-0.06 -30,0c-10.14,0.06 -20.85,-0.11 -31,0c-10.15,0.11 -20.96,-0.23 -31,0c-10.04,0.23 -21.27,-0.5 -31,0c-9.73,0.5 -19.19,1.38 -22.92,-7.08c-3.73,-8.46 -7.55,-12.31 -10.85,-20.15c-3.31,-7.84 -6.57,-13.8 -9.54,-21.46c-2.96,-7.67 -5.87,-14.7 -8.62,-22.38c-2.74,-7.69 -4.79,-14.78 -7.39,-22.61c-2.6,-7.83 -4.27,-16.3 -6.66,-24.34c-2.38,-8.05 -3.79,-16.84 -6.01,-24.99c-2.22,-8.15 -4.81,-15.99 -6.79,-24.21c-1.98,-8.23 -3.8,-16.37 -5.22,-24.78c-1.41,-8.42 -4.55,-17.33 -5,-26c-0.44,-8.68 -4.08,-19.32 -3,-28c1.08,-8.68 -5.42,-23.63 4,-25c-7.63,-7.16 -1.1,-21.48 3.31,-30.69c4.4,-9.22 11.85,-15.69 20.39,-21.61c8.53,-5.92 21.32,-8.69 31.3,-11.7c9.12,11.71 26.7,-1.78 37,7c-0.63,3.97 -3.54,12.76 2,14c0.33,-4.64 -2.82,-10.4 3,-12c-7.92,-18.06 -36.1,4.02 -41,-15c2.26,4.07 7.5,3.06 11,1c-3.9,-17.78 19.43,-16.81 32.67,-13.67c13.24,3.14 16.2,18.49 21.65,29.35c5.46,10.85 10.03,30.67 -7.39,32.25c-17.43,1.57 -28.16,4.17 -44.94,6.06c-16.77,1.89 -18.26,19.8 -12.67,31.69c5.59,11.88 11.14,22.2 18.6,32.4c7.46,10.21 14.99,18.48 23.33,27.67c8.34,9.2 16.09,17.49 24.5,26.5c8.41,9.01 17.38,16.2 25.5,25.5c8.11,9.31 15.11,18.36 22.5,28.5c7.39,10.14 13.54,19.87 19.56,31.45c6.01,11.57 10.47,23.71 14.02,36.97c3.54,13.26 7.66,30.54 6.67,45.33m-145,-352c-0.68,3.64 -2.39,7.05 -2,11c-9.93,1.99 -4.81,-11.43 2,-11m140,193c-19.2,3.34 -38.78,6.22 -56,16c-11.86,-14.37 -26.66,-27.99 -39.25,-41.75c-12.59,-13.76 -27.14,-29.05 -37.05,-43.95c-9.92,-14.89 -28.67,-42.86 -7.67,-53.27c20.99,-10.42 48.76,1.98 62.97,-18.03c54.67,23.3 68.94,88.56 77,141m1,3c9.29,47.7 20.55,100.59 7,149c-3.46,-51.05 -28.74,-96.63 -62,-135c17.37,-7.61 35.86,-12.28 55,-14m-356,54c4.19,35.28 13.53,69.43 27,102c-52,0 -104,0 -156,0c-12.1,-36.45 -23.66,-73.31 -28,-112c52.79,-4.98 106.54,-0.46 157,10z" id="svg_208"/>
  </g>
  <g fill="#141415" fill-opacity="1" id="svg_209" stroke="None">
   <path d="m505,445c-8.66,-1.28 -1.53,7.14 0,0z" id="svg_210"/>
  </g>
  <g fill="#321949" fill-opacity="1" id="svg_211" stroke="None">
   <path d="m666,446c9.38,1.08 17.83,10.58 12,19c8.75,-9.01 -2.74,-19.49 -12,-19z" id="svg_212"/>
  </g>
  <g fill="#131514" fill-opacity="1" id="svg_213" stroke="None">
   <path d="m516,450c7.71,-0.8 -0.38,-7.28 0,0z" id="svg_214"/>
  </g>
  <g fill="#310C33" fill-opacity="1" id="svg_215" stroke="None">
   <path d="m652,460c0.11,0.35 0.79,0.73 1,1c4.44,0.64 7.63,5.12 11,8c-2.31,-2.31 -11.74,-9.92 -12,-13c-0.21,-2.52 4.76,-7.97 7,-9c-5.15,1.26 -8.96,6.49 -7,13z" id="svg_216"/>
  </g>
  <g fill="#C162F7" fill-opacity="1" id="svg_217" stroke="None">
   <path d="m659,447c-2.24,1.03 -7.21,6.48 -7,9c2.21,2.68 7.82,5.52 9.25,8.75c1.42,3.24 9.14,6.18 9.75,8.25c2.39,-2.51 4.67,-5.6 7,-8c5.83,-8.42 -2.62,-17.92 -12,-19c-2.66,0.14 -4.58,0.41 -7,1m11,6c4.33,1.86 1.1,10.1 -3.67,7.67c-4.78,-2.43 -1.05,-9.7 3.67,-7.67z" id="svg_218"/>
  </g>
  <g fill="#E6E6E6" fill-opacity="1" id="svg_219" stroke="None">
   <path d="m457,448c-3.55,0.71 -6.25,3.96 -9,6c7.68,5.79 20.9,2.36 9,-6z" id="svg_220"/>
  </g>
  <g fill="#151313" fill-opacity="1" id="svg_221" stroke="None">
   <path d="m508,451c-2.47,0.23 -4.86,1.69 -6,4c2.7,0.62 6.07,-0.96 6,-4z" id="svg_222"/>
  </g>
  <g fill="#380D3D" fill-opacity="1" id="svg_223" stroke="None">
   <path d="m670,453c-4.72,-2.03 -8.45,5.24 -3.67,7.67c4.77,2.43 8,-5.81 3.67,-7.67m0,1c3.12,1.87 -0.15,8.01 -3.67,5.67c-3.52,-2.34 0.31,-7.69 3.67,-5.67z" id="svg_224"/>
  </g>
  <g fill="#170E07" fill-opacity="1" id="svg_225" stroke="None">
   <path d="m670,454c-3.36,-2.02 -7.19,3.33 -3.67,5.67c3.52,2.34 6.79,-3.8 3.67,-5.67z" id="svg_226"/>
  </g>
  <g fill="#7B3A83" fill-opacity="1" id="svg_227" stroke="None">
   <path d="m664,469c1.01,0.86 4.13,4.7 5,5c1.22,-0.43 1.14,-0.1 2,-1c-0.61,-2.07 -8.33,-5.01 -9.75,-8.25c-1.43,-3.23 -7.04,-6.07 -9.25,-8.75c0.26,3.08 9.69,10.69 12,13z" id="svg_228"/>
  </g>
  <g fill="#EAE9E9" fill-opacity="1" id="svg_229" stroke="None">
   <path d="m668,476c-1.97,0.62 -5.78,-6.09 -7.75,-7.25c-1.98,-1.16 -5.77,-5.85 -7.25,-7.75c-0.21,-0.27 -0.89,-0.65 -1,-1c-2.72,-3.08 -4.55,-0.98 -6,2c6.79,5.4 12.67,12.75 20,17c0.33,-1.22 1.49,-1.84 2,-3z" id="svg_230"/>
  </g>
  <g fill="#301315" fill-opacity="1" id="svg_231" stroke="None">
   <path d="m668,476c0.84,-1.92 -2.02,-0.93 1,-2c-0.87,-0.3 -3.99,-4.14 -5,-5c-3.37,-2.88 -6.56,-7.36 -11,-8c1.48,1.9 5.27,6.59 7.25,7.75c1.97,1.16 5.78,7.87 7.75,7.25z" id="svg_232"/>
  </g>
  <g fill="#F2F1F2" fill-opacity="1" id="svg_233" stroke="None">
   <path d="m645,464c-6.72,-0.87 -1.24,9.57 3.25,10.75c4.48,1.18 4.7,10 10.72,10.22c6.02,0.23 0.98,-9.42 -3.72,-10.22c-4.71,-0.8 -6.17,-10.22 -10.25,-10.75z" id="svg_234"/>
  </g>
  <g fill="#252322" fill-opacity="1" id="svg_235" stroke="None">
   <path d="m517,470c-10.79,4.66 -1.66,18.73 6.98,21.02c8.64,2.3 22.93,3.37 27.02,-7.02c-10.91,11.83 -43.27,5.93 -34,-14z" id="svg_236"/>
  </g>
  <g fill="#E5E4E3" fill-opacity="1" id="svg_237" stroke="None">
   <path d="m636,474c7.24,5.41 7.05,6.56 14.75,13.25c7.71,6.68 5.15,-3.31 -1,-7c-6.15,-3.69 -9.03,-14.51 -13.75,-6.25z" id="svg_238"/>
  </g>
  <g fill="#807E7C" fill-opacity="1" id="svg_239" stroke="None">
   <path d="m573,489c0.48,-4.97 0.49,-10.96 0,-16c0,5.33 0,10.67 0,16z" id="svg_240"/>
  </g>
  <g fill="#EDEDEC" fill-opacity="1" id="svg_241" stroke="None">
   <path d="m636,476c-10.51,3.51 1.78,7.3 5.25,13.75c3.47,6.45 14.92,8.32 8.5,0.5c-6.42,-7.83 -9.83,-5.8 -13.75,-14.25z" id="svg_242"/>
  </g>
  <g fill="#F7F7F7" fill-opacity="1" id="svg_243" stroke="None">
   <path d="m630,482c-6.98,4.68 -13.16,13.04 -18,20c10.69,-8.88 22,-0.11 23,12c4.89,-3.14 8.39,-9.58 13,-14c-6.29,-5.45 -12.49,-11.67 -18,-18z" id="svg_244"/>
  </g>
  <g fill="#EFEFF0" fill-opacity="1" id="svg_245" stroke="None">
   <path d="m629,507c0.36,-7.41 -8.01,-4.16 -12,-3c-0.28,7.71 7.89,3.68 12,3z" id="svg_246"/>
  </g>
  <g fill="#F7F8F8" fill-opacity="1" id="svg_247" stroke="None">
   <path d="m614,503c-9.24,0.93 -9.01,14.35 -2.25,17.25c6.77,2.89 11.66,7.48 16,13c4.33,5.53 7.03,12.28 9.25,18.75c5.98,-13.83 -1.66,-29.75 -6,-43c-6.22,1.9 -18.15,4.7 -17,-6z" id="svg_248"/>
  </g>
  <g fill="#F6F5F5" fill-opacity="1" id="svg_249" stroke="None">
   <path d="m605,510c-2.91,1.58 -7.23,5.96 -2,7c1.54,-1.63 1.6,-4.7 2,-7z" id="svg_250"/>
  </g>
  <g fill="#F6F7F7" fill-opacity="1" id="svg_251" stroke="None">
   <path d="m581,515c-7.25,0.7 -15.11,6.65 -13,15c31.74,-2.31 59.95,18.47 65,50c11.4,-10.35 1.91,-27.8 -3.23,-38.77c-5.14,-10.97 -7.72,-2.69 -15.77,-2.23c0.99,-3.39 5.75,-5.02 9,-6c-3.25,-6.77 -12.31,-10.33 -18.93,-13.07c-6.61,-2.75 -18.91,-7.93 -23.07,0.07c4.69,5.16 8.76,0.46 14,0c-2.11,11.12 -24.92,2.11 -14,-5z" id="svg_252"/>
  </g>
  <g fill="#F8F8F8" fill-opacity="1" id="svg_253" stroke="None">
   <path d="m565,551c4.89,0.61 10.71,0.39 15,1c25.92,0.94 30.29,32.02 37,51c17.16,-1.69 15.28,-22.24 9.93,-32.93c-5.36,-10.68 -10.08,-24.19 -21.85,-29.15c-11.77,-4.95 -28.78,-12.94 -38.08,-2.92c4.07,3.53 7.73,1.28 11,-1c-0.13,12.43 -22.91,1.42 -11,-5c-14.03,-0.91 -15.75,15.59 -2,19m51,1c-1,4.07 -5.83,7.28 -10,7c1.54,-3.23 6.59,-5.42 10,-7z" id="svg_254"/>
  </g>
  <g fill="#100F0F" fill-opacity="1" id="svg_255" stroke="None">
   <path d="m676,545c4.64,-0.16 11.84,-11.68 5.68,-12.32c-6.16,-0.64 -7.48,11.82 -13.68,8.32c6.74,6.29 -7.09,6.76 -4,12c3.75,-1.25 6.07,-5.34 10,-6c1.63,3.7 7.46,5.41 7,10c-4.57,-2.05 -19.97,3.92 -14.22,9.22c5.75,5.3 14.48,-3.67 19.22,-5.22c2.61,4.55 5.41,8.98 7,14c-3.29,0.41 -18.03,1.65 -15.75,7.75c2.29,6.09 14.05,-0.65 16.75,-2.75c0.91,5.76 1.34,11.41 -3,16c7.37,1.77 6.94,-12.06 5,-17c4.09,-1.4 18.1,-5.94 15.75,-12.75c-2.35,-6.81 -15.15,3.93 -16.75,6.75c-2.02,-4.88 -4.68,-9.2 -7,-14c5.23,1.38 18.56,-10.32 12.67,-14.67c-5.88,-4.35 -12.37,11.37 -16.67,11.67c-1.42,-4.22 -5.53,-7.17 -8,-11m5,-9c-0.2,3.08 -3.53,4.88 -6,6c0.41,-2.67 3.28,-5.67 6,-6m19,11c-1.91,4.45 -6.54,7.67 -11,9c1.52,-4.36 6.39,-8.53 11,-9m-18,13c-3.73,2.7 -9.36,6.02 -14,4c2.75,-3.94 10.15,-5.41 14,-4m27,8c-2.86,3.67 -7.34,6.54 -12,7c2.79,-3.59 7.32,-9.1 12,-7m-18,10c-0.91,3.54 -8.2,5.26 -11,3c3.22,-2.52 7.39,-1.66 11,-3z" id="svg_256"/>
  </g>
  <g fill="#BFBFBE" fill-opacity="1" id="svg_257" stroke="None">
   <path d="m681,536c-2.72,0.33 -5.59,3.33 -6,6c2.47,-1.12 5.8,-2.92 6,-6z" id="svg_258"/>
  </g>
  <g fill="#736D6E" fill-opacity="1" id="svg_259" stroke="None">
   <path d="m507,551c-3.6,-3.33 -7.47,-7.47 -11,-11c3.3,3.86 6.95,7.8 11,11z" id="svg_260"/>
  </g>
  <g fill="#DDDEDD" fill-opacity="1" id="svg_261" stroke="None">
   <path d="m700,547c-4.61,0.47 -9.48,4.64 -11,9c4.46,-1.33 9.09,-4.55 11,-9z" id="svg_262"/>
  </g>
  <g fill="#858688" fill-opacity="1" id="svg_263" stroke="None">
   <path d="m580,552c-4.29,-0.61 -10.11,-0.39 -15,-1c4.46,1.11 9.84,0.8 15,1z" id="svg_264"/>
  </g>
  <g fill="#1F1D1F" fill-opacity="1" id="svg_265" stroke="None">
   <path d="m616,552c-3.41,1.58 -8.46,3.77 -10,7c4.17,0.28 9,-2.93 10,-7z" id="svg_266"/>
  </g>
  <g fill="#FCFCFC" fill-opacity="1" id="svg_267" stroke="None">
   <path d="m698,909c0.99,-14.79 -3.13,-32.07 -6.67,-45.33c-3.55,-13.26 -8.01,-25.4 -14.02,-36.97c-6.02,-11.58 -12.17,-21.31 -19.56,-31.45c-7.39,-10.14 -14.39,-19.19 -22.5,-28.5c-8.12,-9.3 -17.09,-16.49 -25.5,-25.5c-8.41,-9.01 -16.16,-17.3 -24.5,-26.5c-8.34,-9.19 -15.87,-17.46 -23.33,-27.67c-7.46,-10.2 -13.01,-20.52 -18.6,-32.4c-5.59,-11.89 -4.1,-29.8 12.67,-31.69c16.78,-1.89 27.51,-4.49 44.94,-6.06c17.42,-1.58 12.85,-21.4 7.39,-32.25c-5.45,-10.86 -8.41,-26.21 -21.65,-29.35c-13.24,-3.14 -36.57,-4.11 -32.67,13.67c-3.5,2.06 -8.74,3.07 -11,-1c4.9,19.02 33.08,-3.06 41,15c-5.82,1.6 -2.67,7.36 -3,12c-5.54,-1.24 -2.63,-10.03 -2,-14c-10.3,-8.78 -27.88,4.71 -37,-7c-9.98,3.01 -22.77,5.78 -31.3,11.7c-8.54,5.92 -15.99,12.39 -20.39,21.61c-4.41,9.21 -10.94,23.53 -3.31,30.69c-9.42,1.37 -2.92,16.32 -4,25c-1.08,8.68 2.56,19.32 3,28c0.45,8.67 3.59,17.58 5,26c1.42,8.41 3.24,16.55 5.22,24.78c1.98,8.22 4.57,16.06 6.79,24.21c2.22,8.15 3.63,16.94 6.01,24.99c2.39,8.04 4.06,16.51 6.66,24.34c2.6,7.83 4.65,14.92 7.39,22.61c2.75,7.68 5.66,14.71 8.62,22.38c2.97,7.66 6.23,13.62 9.54,21.46c3.3,7.84 7.12,11.69 10.85,20.15c3.73,8.46 13.19,7.58 22.92,7.08c9.73,-0.5 20.96,0.23 31,0c10.04,-0.23 20.85,0.11 31,0c10.15,-0.11 20.86,0.06 31,0c10.14,-0.06 19.89,0.04 30,0m-98,-341c-3.03,3.44 -7.5,9.02 -12,8c2.29,-3.11 7.93,-8.55 12,-8z" id="svg_268"/>
  </g>
  <g fill="#3C6466" fill-opacity="1" id="svg_269" stroke="None">
   <path d="m368,558c2.57,0 8.8,-1.19 11,0c-3.63,-1.81 -7.48,-0.34 -11,0z" id="svg_270"/>
  </g>
  <g fill="#F0F1F2" fill-opacity="1" id="svg_271" stroke="None">
   <path d="m553,557c-6.81,-0.43 -11.93,12.99 -2,11c-0.39,-3.95 1.32,-7.36 2,-11z" id="svg_272"/>
  </g>
  <g fill="#3CABA3" fill-opacity="1" id="svg_273" stroke="None">
   <path d="m179,743c0,6.33 0,12.67 0,19c-0.17,11.21 1.33,22.01 2,33c9.61,-2.35 19.8,-2 30,-2c10.06,-0.97 22.01,-0.97 32,0c32.26,-0.33 62.73,6.49 94,10c-1.85,-22.63 -4.75,-45 -9,-67c-16.84,-0.4 -34.35,-8.12 -44,-22c11.61,4.98 22.38,19.57 36,17c-10.89,-6.29 -17.36,-23.01 -12,-34c1.85,10.85 1.22,26.93 13.92,32.08c12.7,5.15 10.84,19.45 13.09,31.91c2.25,12.46 3.23,27.26 4.99,40.01c1.76,12.75 3.64,27.4 6.22,39.78c2.59,12.37 6.17,23.46 9.8,35.2c3.64,11.73 7.58,21.74 11.98,33.02c61.67,0 123.33,0 185,0c-23.52,-40.39 -37.21,-78.62 -48.67,-124.33c-11.47,-45.71 -26.64,-97.84 -24.33,-147.67c-6.87,-0.54 -13.57,-4.23 -19.98,-6.02c-6.4,-1.8 -12.05,-5.3 -17.94,-8.06c-5.9,-2.76 -10.95,-6.36 -16.38,-9.62c-5.44,-3.25 -8.76,-7.53 -14,-11c-5.24,-3.46 -8.47,-8.98 -12.95,-13.05c-4.48,-4.07 -7.14,-11.19 -11,-15c-3.86,-3.81 -4.77,-14.1 -8.75,-16.25c-2.2,-1.19 -8.43,0 -11,0c-47.19,0 -97.55,22.06 -126.7,60.3c-29.14,38.24 -62.3,75.06 -62.3,124.7z" id="svg_274"/>
  </g>
  <g fill="#DEDEDD" fill-opacity="1" id="svg_275" stroke="None">
   <path d="m682,560c-3.85,-1.41 -11.25,0.06 -14,4c4.64,2.02 10.27,-1.3 14,-4z" id="svg_276"/>
  </g>
  <g fill="#1C1C1C" fill-opacity="1" id="svg_277" stroke="None">
   <path d="m600,568c-4.07,-0.55 -9.71,4.89 -12,8c4.5,1.02 8.97,-4.56 12,-8z" id="svg_278"/>
  </g>
  <g fill="#E2E2E1" fill-opacity="1" id="svg_279" stroke="None">
   <path d="m709,568c-4.68,-2.1 -9.21,3.41 -12,7c4.66,-0.46 9.14,-3.33 12,-7z" id="svg_280"/>
  </g>
  <g fill="#D5D5D4" fill-opacity="1" id="svg_281" stroke="None">
   <path d="m691,578c-3.61,1.34 -7.78,0.48 -11,3c2.8,2.26 10.09,0.54 11,-3z" id="svg_282"/>
  </g>
  <g fill="#3DAAA3" fill-opacity="1" id="svg_283" stroke="None">
   <path d="m693,750c-8.06,-52.44 -22.33,-117.7 -77,-141c-14.21,20.01 -41.98,7.61 -62.97,18.03c-21,10.41 -2.25,38.38 7.67,53.27c9.91,14.9 24.46,30.19 37.05,43.95c12.59,13.76 27.39,27.38 39.25,41.75c17.22,-9.78 36.8,-12.66 56,-16z" id="svg_284"/>
  </g>
  <g fill="#284A4A" fill-opacity="1" id="svg_285" stroke="None">
   <path d="m178,745c-0.7,5.65 0.52,12.06 1,17c0,-6.33 0,-12.67 0,-19c-0.17,0.64 -0.86,0.87 -1,2z" id="svg_286"/>
  </g>
  <g fill="#FAFAFA" fill-opacity="1" id="svg_287" stroke="None">
   <path d="m694,753c-19.14,1.72 -37.63,6.39 -55,14c33.26,38.37 58.54,83.95 62,135c13.55,-48.41 2.29,-101.3 -7,-149z" id="svg_288"/>
  </g>
  <g fill="#316A6C" fill-opacity="1" id="svg_289" stroke="None">
   <path d="m211,793c10.67,0 21.33,0 32,0c-9.99,-0.97 -21.94,-0.97 -32,0z" id="svg_290"/>
  </g>
  <g fill="#FCFCFC" fill-opacity="1" id="svg_291" stroke="None">
   <path d="m338,807c-50.46,-10.46 -104.21,-14.98 -157,-10c4.34,38.69 15.9,75.55 28,112c52,0 104,0 156,0c-13.47,-32.57 -22.81,-66.72 -27,-102z" id="svg_292"/>
  </g>
  <g fill="#27171A" fill-opacity="1" id="svg_293" stroke="None">
   <path d="m222,911c47,0 94,0 141,0c-22.49,-2.18 -47.71,-0.99 -71,-1c-23.29,-0.01 -47.52,-1.17 -70,1z" id="svg_294"/>
  </g>
  <g fill="#251619" fill-opacity="1" id="svg_295" stroke="None">
   <path d="m558,911c5.36,-3.29 15.51,1.47 22,0c6.49,-1.47 14.94,0.64 22,0c7.06,-0.64 15.72,0.3 23,0c7.28,-0.3 14.64,0.13 22,0c7.36,-0.13 14.54,0.05 22,0c7.46,-0.05 15.49,0 23,0c-6.6,-0.64 -14.6,-1.4 -22,-1c-7.4,0.4 -15.64,-0.28 -23,0c-7.36,0.28 -14.79,-0.34 -22,0c-7.21,0.34 -16.11,-0.6 -23,0c-6.89,0.6 -16.95,-1.26 -23,0c-6.05,1.26 -17.57,-3.37 -21,1z" id="svg_296"/>
  </g>
  <g fill="#696261" fill-opacity="1" id="svg_297" stroke="None">
   <path d="m555,912c-9.95,-5.48 -26.12,0.82 -38,-1c-11.88,-1.82 -26.61,0.84 -39,0c-12.39,-0.84 -25.38,0.36 -38,0c-12.62,-0.36 -26.3,0.14 -39,0c-12.7,-0.14 -25.31,0 -38,0c-47,0 -94,0 -141,0c-6.1,0 -14.09,0.95 -20,0c-5.91,-0.95 -14.79,2.53 -20,0c4.96,4.96 18.54,-0.58 26,1c7.47,1.58 18.73,-0.72 27,0c8.27,0.72 18.41,-0.33 27,0c8.59,0.33 17.24,-0.14 26,0c8.76,0.14 18.14,-0.07 27,0c8.86,0.07 18.14,-0.03 27,0c8.86,0.03 17.12,-0.02 26,0c8.88,0.02 18.07,-0.02 27,0c8.93,0.02 18.07,-0.03 27,0c8.93,0.03 18.12,-0.07 27,0c8.88,0.07 17.15,-0.16 26,0c8.85,0.16 18.17,-0.35 27,0c8.83,0.35 18.31,-0.77 27,0c8.69,0.78 17.58,-1.79 26,0z" id="svg_298"/>
  </g>
  <g fill="#655B5A" fill-opacity="1" id="svg_299" stroke="None">
   <path d="m557,913c5.29,2.17 16.93,-2.53 25,-1c8.07,1.53 19.36,-0.58 28,0c8.64,0.58 19.24,-0.01 28,0c8.76,0.01 19.52,0.55 28,0c8.48,-0.55 20.35,1.47 28,0c7.65,-1.47 20.98,4.02 26,-1c-3.65,1.77 -9.86,-0.66 -14,0c-4.14,0.66 -9.73,0 -14,0c-7.51,0 -15.54,-0.05 -23,0c-7.46,0.05 -14.64,-0.13 -22,0c-7.36,0.13 -14.72,-0.3 -22,0c-7.28,0.3 -15.94,-0.64 -23,0c-7.06,0.64 -15.51,-1.47 -22,0c-6.49,1.47 -16.64,-3.29 -22,0c-0.58,0.73 0.35,1.73 -1,2z" id="svg_300"/>
  </g>
 </g>
</svg>